<svg width="63" height="64" viewBox="0 0 63 64" fill="none" xmlns="http://www.w3.org/2000/svg">
<path fill-rule="evenodd" clip-rule="evenodd" d="M55.5543 46.2179L51.7786 42.4422C51.4989 42.1625 51.425 41.7509 51.5596 41.4025C55.9449 29.7136 44.9843 16.421 31.6596 19.7666L39.3667 27.471L39.3641 27.4737C44.7098 32.8194 40.9683 42.0962 33.3033 42.0962C31.1054 42.0962 28.9101 41.2624 27.2425 39.5949L27.2452 39.5922L19.5354 31.8851C18.1105 37.5474 19.7095 43.5788 23.9259 47.7958L23.9233 47.7984C28.4774 52.3526 35.1928 53.8539 41.2058 51.78C41.5699 51.6533 41.9552 51.7562 42.2111 52.0122L51.459 61.26C55.6622 65.4632 63 62.5449 63 56.4763C63 54.7428 62.343 53.0067 61.0264 51.6927L55.5543 46.2179ZM54.4936 54.7247C56.8129 52.4054 60.3961 55.9252 58.0451 58.2762C57.0662 59.2551 55.4752 59.2551 54.4936 58.2736L54.491 58.2762C53.5121 57.2973 53.5121 55.701 54.491 54.7221L54.4936 54.7247ZM57.9607 45.8747L53.5754 41.4868C54.5464 38.3338 54.6651 34.9723 53.9263 31.7662C53.2034 28.6237 51.6572 25.6368 49.293 23.1405C48.1136 20.3673 46.3221 17.8713 44.0371 15.8636C41.6888 13.8029 39.161 12.4705 35.9733 11.5628V11.5602C19.2238 7.07201 5.13146 24.5231 12.7251 39.8954C14.8121 44.1223 18.369 47.6025 22.926 49.5235C25.4194 51.8876 28.4036 53.4285 31.5382 54.1515C34.7441 54.8904 38.1056 54.7742 41.2589 53.8006L42.6336 55.1753C40.2747 57.1648 39.7048 59.2123 38.623 61.9827H22.913C21.5937 58.5948 20.7942 56.0776 17.4142 54.125C13.9868 52.146 11.3746 52.7502 7.85772 53.2885L0 39.692C2.22695 36.9136 4.05544 34.9559 4.05544 30.9981C4.05544 27.0403 2.22432 25.0825 0 22.3041L7.85502 8.69952C11.3722 9.23779 13.9844 9.84465 17.4115 7.86309C20.7942 5.91058 21.591 3.39338 22.9129 0.00537109H38.6229C39.9422 3.39325 40.7417 5.90781 44.1217 7.86309C47.5517 9.84201 50.1613 9.2378 53.6782 8.69952L61.5332 22.3041C59.3089 25.0825 57.4778 27.0403 57.4778 30.9981C57.4778 34.9559 59.3089 36.9137 61.5332 39.692L57.9607 45.8747Z" fill="#052B98"/>
</svg>
