<svg width="54" height="65" viewBox="0 0 54 65" fill="none" xmlns="http://www.w3.org/2000/svg">
<path d="M5.17145 49.9126C5.04119 49.6792 4.82362 49.507 4.56651 49.4338C4.3094 49.3606 4.03376 49.3925 3.8001 49.5223C3.56645 49.6522 3.39387 49.8695 3.32026 50.1265C3.24665 50.3835 3.27803 50.6591 3.4075 50.893C3.49252 51.0451 3.57877 51.1968 3.66626 51.3483C3.80018 51.5799 4.02065 51.749 4.27918 51.8181C4.5377 51.8872 4.81311 51.8508 5.0448 51.7169C5.27649 51.583 5.4455 51.3625 5.51463 51.104C5.58377 50.8455 5.54738 50.5701 5.41346 50.3384C5.33139 50.1971 5.25072 50.0552 5.17145 49.9126Z" fill="#052B98"/>
<path d="M3.54822 46.3666C3.49203 46.2131 3.43724 46.0591 3.38385 45.9045C3.29621 45.6518 3.11181 45.4441 2.87117 45.3272C2.63053 45.2104 2.35332 45.1938 2.10048 45.2812C1.84763 45.3686 1.63983 45.5528 1.52273 45.7934C1.40563 46.0339 1.38881 46.3111 1.47597 46.564C1.53339 46.7294 1.59212 46.8942 1.65217 47.0586C1.74444 47.3094 1.93237 47.5133 2.17477 47.6257C2.41717 47.7381 2.69425 47.7497 2.94525 47.6581C3.19624 47.5665 3.40067 47.3792 3.51371 47.1371C3.62674 46.895 3.63915 46.6179 3.54822 46.3666Z" fill="#052B98"/>
<path d="M5.2727 23.3494C5.15915 23.281 5.03324 23.2356 4.90215 23.2158C4.77106 23.1961 4.63736 23.2024 4.5087 23.2343C4.38004 23.2663 4.25893 23.3233 4.1523 23.402C4.04567 23.4808 3.95561 23.5798 3.88725 23.6934C3.79657 23.8445 3.70711 23.9964 3.61889 24.1491C3.48719 24.381 3.45268 24.6557 3.52292 24.913C3.59316 25.1703 3.76243 25.3893 3.99371 25.5221C4.22499 25.655 4.49946 25.6908 4.7571 25.6219C5.01474 25.5529 5.23459 25.3847 5.36856 25.1541C5.45013 25.0128 5.53301 24.8724 5.61721 24.7328C5.68552 24.6194 5.7308 24.4936 5.75045 24.3626C5.7701 24.2317 5.76375 24.0982 5.73175 23.9697C5.69976 23.8412 5.64274 23.7203 5.56397 23.6138C5.4852 23.5074 5.38622 23.4175 5.2727 23.3494Z" fill="#052B98"/>
<path d="M2.4058 42.1283C2.37746 41.9684 2.35061 41.8085 2.32547 41.6475C2.28351 41.3836 2.13858 41.147 1.92247 40.9898C1.70636 40.8326 1.4367 40.7675 1.17265 40.8088C0.908601 40.8501 0.671714 40.9944 0.513951 41.2102C0.356187 41.4259 0.290426 41.6954 0.331093 41.9595C0.358447 42.1343 0.387444 42.308 0.418082 42.4807C0.459657 42.7138 0.581873 42.9248 0.76334 43.0769C0.944806 43.2289 1.17396 43.3123 1.41071 43.3124C1.47029 43.3125 1.52975 43.3073 1.58839 43.2967C1.71881 43.2737 1.84342 43.2253 1.95511 43.1541C2.06679 43.0829 2.16335 42.9905 2.23926 42.8819C2.31518 42.7734 2.36896 42.651 2.39754 42.5217C2.42611 42.3924 2.42892 42.2587 2.4058 42.1283Z" fill="#052B98"/>
<path d="M7.63103 53.552C7.46294 53.3448 7.21956 53.2126 6.9542 53.1844C6.68884 53.1562 6.42311 53.2343 6.2152 53.4016C6.0073 53.5689 5.87416 53.8117 5.84494 54.077C5.81571 54.3422 5.89279 54.6082 6.05929 54.8168C6.17018 54.9546 6.28264 55.0908 6.39666 55.2253C6.56882 55.4301 6.81527 55.558 7.0818 55.5811C7.34832 55.6042 7.61309 55.5204 7.81786 55.3482C8.02263 55.1761 8.15061 54.9296 8.17367 54.6631C8.19673 54.3966 8.11296 54.1318 7.9408 53.927C7.83631 53.803 7.73306 53.678 7.63103 53.552Z" fill="#052B98"/>
<path d="M10.6821 56.7109C10.5823 56.6239 10.4663 56.5573 10.3408 56.5151C10.2153 56.4728 10.0827 56.4557 9.95058 56.4647C9.81846 56.4737 9.68941 56.5087 9.57079 56.5676C9.45218 56.6264 9.34632 56.7081 9.25927 56.8079C9.17221 56.9077 9.10566 57.0236 9.06342 57.1491C9.02118 57.2746 9.00407 57.4072 9.01308 57.5394C9.02208 57.6715 9.05702 57.8005 9.11589 57.9191C9.17477 58.0378 9.25644 58.1436 9.35622 58.2307C9.48905 58.3463 9.62303 58.4606 9.75816 58.5737C9.85962 58.6588 9.97685 58.723 10.1032 58.7628C10.2295 58.8026 10.3624 58.8171 10.4943 58.8055C10.6262 58.7939 10.7545 58.7564 10.8719 58.6953C10.9894 58.6341 11.0936 58.5504 11.1787 58.4489C11.2638 58.3474 11.328 58.2302 11.3678 58.1039C11.4076 57.9776 11.4221 57.8447 11.4105 57.7128C11.3989 57.5809 11.3614 57.4525 11.3003 57.3351C11.2391 57.2177 11.1554 57.1134 11.0539 57.0284C10.929 56.9235 10.805 56.8177 10.6821 56.7109Z" fill="#052B98"/>
<path d="M14.6584 59.5469C14.5172 59.4652 14.3767 59.3823 14.237 59.2984C14.008 59.1601 13.7335 59.1184 13.4739 59.1825C13.2142 59.2466 12.9906 59.4112 12.8523 59.6401C12.714 59.869 12.6723 60.1435 12.7364 60.4032C12.8005 60.6629 12.9651 60.8865 13.1941 61.0248C13.3451 61.1158 13.4973 61.2052 13.6505 61.293C13.7651 61.3595 13.8918 61.4027 14.0232 61.4202C14.1546 61.4377 14.2881 61.4291 14.4162 61.3949C14.5442 61.3607 14.6643 61.3016 14.7695 61.2209C14.8747 61.1403 14.9629 61.0397 15.0292 60.9249C15.0954 60.8101 15.1384 60.6833 15.1556 60.5519C15.1729 60.4205 15.164 60.287 15.1296 60.159C15.0951 60.031 15.0358 59.911 14.9549 59.806C14.8741 59.701 14.7733 59.6129 14.6584 59.5469Z" fill="#052B98"/>
<path d="M2.01877 37.7071C2.01877 37.5599 2.02 37.4131 2.02247 37.2666C2.02704 36.9991 1.92518 36.7408 1.7393 36.5485C1.55343 36.3562 1.29876 36.2455 1.03132 36.241H1.01308C0.748683 36.2408 0.494798 36.3445 0.3061 36.5297C0.117403 36.7149 0.00898793 36.9668 0.00420192 37.2312C0.00124442 37.3896 -0.000151808 37.5483 1.30585e-05 37.7071V37.7568C0.000609497 37.8879 0.0273183 38.0177 0.0785815 38.1384C0.129845 38.2592 0.204636 38.3685 0.298593 38.46C0.39255 38.5515 0.503792 38.6234 0.62583 38.6715C0.747868 38.7196 0.87826 38.7429 1.0094 38.7401C1.27947 38.7346 1.53658 38.6232 1.72537 38.43C1.91415 38.2368 2.01952 37.9772 2.01877 37.7071Z" fill="#052B98"/>
<path d="M35.8101 13.9947C35.9641 14.0503 36.1176 14.1073 36.2707 14.1655C36.5207 14.261 36.7985 14.2532 37.0428 14.144C37.2871 14.0347 37.478 13.8328 37.5735 13.5828C37.5934 13.5285 37.6085 13.4727 37.6187 13.4158C37.5486 13.1713 37.499 12.9214 37.4703 12.6687C37.355 12.4924 37.187 12.357 36.9902 12.2816C36.8254 12.2191 36.6599 12.1579 36.4937 12.098C36.3691 12.0529 36.2368 12.0328 36.1045 12.0389C35.9721 12.045 35.8423 12.0771 35.7223 12.1334C35.6024 12.1897 35.4947 12.269 35.4055 12.367C35.3163 12.4649 35.2472 12.5795 35.2023 12.7041C35.1574 12.8288 35.1375 12.961 35.1437 13.0934C35.1499 13.2257 35.1822 13.3555 35.2386 13.4754C35.2951 13.5953 35.3746 13.7028 35.4727 13.792C35.5707 13.8811 35.6854 13.95 35.8101 13.9947Z" fill="#052B98"/>
<path d="M1.22285 34.2016C1.27981 34.2116 1.33753 34.2165 1.39536 34.2164C1.63303 34.2161 1.863 34.1321 2.04476 33.9789C2.22652 33.8258 2.34841 33.6134 2.38897 33.3792C2.41657 33.2183 2.4459 33.0588 2.4767 32.8989C2.52704 32.6361 2.47097 32.364 2.3208 32.1426C2.17063 31.9211 1.93866 31.7683 1.67589 31.7178C1.41312 31.6674 1.14105 31.7233 0.919501 31.8733C0.697948 32.0234 0.545046 32.2552 0.494406 32.518C0.461137 32.6907 0.429428 32.8639 0.399282 33.0377C0.37689 33.1682 0.380433 33.3018 0.409709 33.431C0.438985 33.5601 0.49342 33.6822 0.569902 33.7903C0.646385 33.8984 0.743417 33.9903 0.855454 34.0609C0.96749 34.1315 1.09233 34.1793 1.22285 34.2016Z" fill="#052B98"/>
<path d="M2.22262 29.7432C2.34722 29.7885 2.47952 29.8087 2.61195 29.8027C2.74438 29.7968 2.87434 29.7648 2.99439 29.7086C3.11444 29.6524 3.22222 29.573 3.31158 29.4751C3.40093 29.3772 3.4701 29.2626 3.51513 29.1379C3.57083 28.9839 3.62824 28.8308 3.6869 28.6773C3.78231 28.4272 3.77448 28.1495 3.66513 27.9052C3.55578 27.6609 3.35387 27.4701 3.10381 27.3747C2.85375 27.2792 2.57603 27.2871 2.33174 27.3964C2.08745 27.5058 1.89661 27.7077 1.8012 27.9577C1.73811 28.1221 1.67658 28.2872 1.61662 28.4528C1.57162 28.5774 1.55161 28.7095 1.55771 28.8418C1.56382 28.974 1.59593 29.1038 1.65221 29.2236C1.70849 29.3435 1.78783 29.451 1.8857 29.5402C1.98358 29.6293 2.09806 29.6983 2.22262 29.7432Z" fill="#052B98"/>
<path d="M35.9027 61.3855C35.7504 61.4412 35.5974 61.4953 35.4438 61.548C35.3186 61.5907 35.203 61.6578 35.1036 61.7452C35.0043 61.8327 34.9231 61.9389 34.8648 62.0577C34.8065 62.1765 34.7722 62.3056 34.7638 62.4377C34.7553 62.5698 34.773 62.7023 34.8158 62.8275C34.8586 62.9528 34.9256 63.0684 35.0131 63.1677C35.1005 63.267 35.2067 63.3482 35.3255 63.4065C35.4444 63.4648 35.5735 63.4992 35.7056 63.5076C35.8377 63.516 35.9701 63.4983 36.0954 63.4555C36.2627 63.3989 36.4294 63.3402 36.5956 63.2793C36.7203 63.234 36.8348 63.1646 36.9326 63.0751C37.0304 62.9855 37.1096 62.8775 37.1656 62.7573C37.2216 62.637 37.2533 62.5069 37.2589 62.3744C37.2646 62.2419 37.244 62.1096 37.1985 61.9851C37.1529 61.8605 37.0832 61.7462 36.9934 61.6486C36.9035 61.551 36.7953 61.4721 36.675 61.4164C36.5546 61.3608 36.4244 61.3294 36.2919 61.324C36.1594 61.3187 36.0271 61.3396 35.9027 61.3855Z" fill="#052B98"/>
<path d="M46.5876 53.9008C46.4827 54.0254 46.3766 54.1489 46.2695 54.2714C46.0957 54.4734 46.0089 54.7359 46.028 55.0017C46.0471 55.2674 46.1705 55.5148 46.3713 55.6899C46.5722 55.865 46.8341 55.9535 47.1 55.9361C47.3659 55.9188 47.6141 55.797 47.7905 55.5972C47.9063 55.4649 48.0209 55.3312 48.1342 55.1961C48.2193 55.0946 48.2835 54.9773 48.3232 54.8509C48.3629 54.7245 48.3774 54.5916 48.3657 54.4596C48.354 54.3277 48.3165 54.1993 48.2552 54.0819C48.194 53.9645 48.1102 53.8602 48.0086 53.7752C47.907 53.6901 47.7897 53.6259 47.6634 53.5862C47.537 53.5465 47.404 53.532 47.2721 53.5437C47.1401 53.5554 47.0118 53.5929 46.8944 53.6542C46.7769 53.7155 46.6727 53.7993 46.5876 53.9008Z" fill="#052B98"/>
<path d="M31.561 12.875C31.7214 12.9021 31.8813 12.9316 32.0405 12.9622C32.1039 12.9742 32.1682 12.9803 32.2327 12.9804C32.4836 12.9804 32.7254 12.887 32.911 12.7182C33.0966 12.5495 33.2126 12.3176 33.2363 12.0679C33.26 11.8182 33.1898 11.5686 33.0393 11.3679C32.8888 11.1672 32.6689 11.0299 32.4225 10.9828C32.249 10.9493 32.0752 10.9176 31.9011 10.8878C31.7706 10.8654 31.6369 10.869 31.5078 10.8983C31.3787 10.9275 31.2566 10.982 31.1485 11.0584C31.0404 11.1349 30.9484 11.2319 30.8778 11.344C30.8073 11.456 30.7594 11.5808 30.7371 11.7113C30.7148 11.8418 30.7184 11.9755 30.7477 12.1046C30.777 12.2337 30.8315 12.3558 30.908 12.4639C30.9845 12.5719 31.0815 12.6639 31.1936 12.7344C31.3056 12.805 31.4305 12.8527 31.561 12.875Z" fill="#052B98"/>
<path d="M43.4783 57.0058C43.3536 57.1101 43.2279 57.2137 43.1012 57.3163C42.8935 57.4846 42.7611 57.7284 42.7331 57.9942C42.7051 58.2601 42.7838 58.5261 42.9519 58.7339C43.1199 58.9418 43.3637 59.0744 43.6295 59.1026C43.8953 59.1308 44.1614 59.0523 44.3694 58.8843C44.5064 58.7741 44.6422 58.6624 44.777 58.5492C44.879 58.4641 44.9633 58.3598 45.0249 58.2421C45.0865 58.1243 45.1242 57.9956 45.1359 57.8633C45.1476 57.731 45.1331 57.5976 45.0931 57.4709C45.0531 57.3442 44.9885 57.2267 44.903 57.1251C44.8174 57.0234 44.7127 56.9397 44.5947 56.8786C44.4767 56.8176 44.3478 56.7805 44.2154 56.7694C44.083 56.7583 43.9497 56.7735 43.8232 56.8141C43.6967 56.8546 43.5795 56.9198 43.4783 57.0058Z" fill="#052B98"/>
<path d="M39.8804 59.5281C39.7392 59.6098 39.5972 59.6901 39.4544 59.7692C39.2207 59.8993 39.0483 60.1168 38.9751 60.374C38.9018 60.6312 38.9338 60.9069 39.0638 61.1405C39.1939 61.3742 39.4114 61.5466 39.6686 61.6198C39.9258 61.6931 40.2015 61.6611 40.4352 61.5311C40.5884 61.4459 40.7408 61.3596 40.8923 61.2722C41.0068 61.2058 41.1072 61.1175 41.1876 61.0123C41.268 60.907 41.3269 60.787 41.3609 60.6591C41.3949 60.5311 41.4034 60.3977 41.3859 60.2664C41.3683 60.1352 41.3251 60.0087 41.2586 59.8941C41.1922 59.7796 41.1038 59.6793 40.9986 59.5989C40.8934 59.5185 40.7733 59.4596 40.6454 59.4256C40.5174 59.3916 40.384 59.3832 40.2527 59.4008C40.1215 59.4183 39.995 59.4616 39.8804 59.5281Z" fill="#052B98"/>
<path d="M31.6572 62.5224C31.4972 62.551 31.3369 62.5776 31.1761 62.6022C30.9252 62.641 30.6981 62.7731 30.5404 62.9721C30.3826 63.1711 30.3058 63.4223 30.3252 63.6755C30.3447 63.9287 30.459 64.1652 30.6453 64.3377C30.8316 64.5103 31.0762 64.6061 31.3302 64.6062C31.3825 64.6061 31.4349 64.6021 31.4866 64.5943C31.6614 64.5668 31.8357 64.5379 32.0096 64.5077C32.14 64.4846 32.2645 64.436 32.3762 64.3648C32.4878 64.2936 32.5843 64.201 32.6601 64.0925C32.736 63.9839 32.7897 63.8615 32.8182 63.7322C32.8468 63.6029 32.8495 63.4692 32.8264 63.3388C32.8032 63.2084 32.7546 63.0839 32.6834 62.9723C32.6121 62.8607 32.5195 62.7642 32.4109 62.6884C32.3023 62.6126 32.1799 62.5589 32.0506 62.5304C31.9212 62.5019 31.7876 62.4992 31.6572 62.5224Z" fill="#052B98"/>
<path d="M22.896 62.5305C22.7358 62.503 22.5761 62.4736 22.4169 62.4424C22.2867 62.4162 22.1526 62.416 22.0223 62.4418C21.8921 62.4676 21.7682 62.5188 21.6578 62.5926C21.5474 62.6664 21.4526 62.7613 21.379 62.8719C21.3054 62.9824 21.2543 63.1064 21.2288 63.2367C21.2032 63.367 21.2037 63.5011 21.2301 63.6313C21.2566 63.7614 21.3084 63.885 21.3828 63.9951C21.4572 64.1051 21.5525 64.1994 21.6634 64.2724C21.7743 64.3455 21.8986 64.3959 22.029 64.4208C22.202 64.4548 22.376 64.4862 22.5505 64.5168C22.6079 64.5265 22.6661 64.5315 22.7244 64.5315C22.9768 64.5315 23.22 64.4368 23.4059 64.2661C23.5919 64.0954 23.707 63.8612 23.7285 63.6097C23.7501 63.3583 23.6765 63.1079 23.5224 62.908C23.3682 62.7082 23.1447 62.5735 22.896 62.5305Z" fill="#052B98"/>
<path d="M18.6463 61.4012C18.4923 61.3455 18.3392 61.2883 18.187 61.2294C18.0634 61.1814 17.9316 61.1582 17.799 61.1611C17.6665 61.1641 17.5358 61.1932 17.4145 61.2468C17.2932 61.3003 17.1837 61.3772 17.0922 61.4732C17.0007 61.5691 16.929 61.6822 16.8812 61.8058C16.8334 61.9295 16.8105 62.0614 16.8138 62.194C16.8171 62.3265 16.8464 62.4571 16.9003 62.5783C16.9541 62.6994 17.0312 62.8088 17.1274 62.9001C17.2235 62.9914 17.3367 63.0629 17.4605 63.1104C17.6251 63.1738 17.7907 63.2357 17.9573 63.2959C18.0817 63.3412 18.2139 63.3615 18.3462 63.3558C18.4784 63.35 18.6083 63.3182 18.7283 63.2622C18.8483 63.2063 18.9561 63.1272 19.0455 63.0295C19.135 62.9319 19.2043 62.8176 19.2495 62.6932C19.2948 62.5687 19.3151 62.4366 19.3093 62.3043C19.3034 62.172 19.2716 62.0422 19.2156 61.9222C19.1596 61.8022 19.0805 61.6945 18.9828 61.6051C18.8851 61.5157 18.7708 61.4464 18.6463 61.4012Z" fill="#052B98"/>
<path d="M18.2086 14.1079C18.3269 14.1078 18.4443 14.0868 18.5553 14.0459C18.7091 13.9898 18.8634 13.935 19.0183 13.8815C19.1437 13.8384 19.2593 13.7709 19.3586 13.683C19.4578 13.5951 19.5388 13.4885 19.5968 13.3693C19.6548 13.25 19.6887 13.1205 19.6965 12.9882C19.7044 12.8558 19.686 12.7232 19.6426 12.5979C19.5991 12.4727 19.5314 12.3572 19.4432 12.2582C19.355 12.1592 19.2482 12.0785 19.1288 12.0208C19.0095 11.9631 18.8799 11.9296 18.7475 11.922C18.6151 11.9145 18.4826 11.9332 18.3574 11.977C18.1911 12.0345 18.0259 12.0933 17.8618 12.1532C17.6391 12.2344 17.4522 12.3914 17.3338 12.5968C17.2155 12.8022 17.1733 13.0427 17.2147 13.2761C17.2561 13.5095 17.3784 13.7208 17.5602 13.8729C17.742 14.0251 17.9715 14.1083 18.2086 14.1079Z" fill="#052B98"/>
<path d="M27.1749 12.5095H27.2528C27.3908 12.5095 27.5286 12.5106 27.6663 12.5129H27.6838C27.9499 12.5133 28.2053 12.4084 28.3944 12.2212C28.5835 12.034 28.6909 11.7795 28.6931 11.5134C28.6954 11.2474 28.5923 10.9912 28.4064 10.8008C28.2205 10.6104 27.9669 10.5012 27.7008 10.4971C27.5519 10.4947 27.4026 10.4935 27.2528 10.4937H27.1749C27.0425 10.4937 26.9115 10.5197 26.7892 10.5704C26.6669 10.621 26.5558 10.6953 26.4622 10.7889C26.3686 10.8825 26.2944 10.9936 26.2437 11.1159C26.1931 11.2381 26.167 11.3692 26.167 11.5016C26.167 11.6339 26.1931 11.765 26.2437 11.8873C26.2944 12.0096 26.3686 12.1207 26.4622 12.2143C26.5558 12.3079 26.6669 12.3821 26.7892 12.4328C26.9115 12.4834 27.0425 12.5095 27.1749 12.5095Z" fill="#052B98"/>
<path d="M22.6205 12.9168C22.68 12.9169 22.7395 12.9116 22.7981 12.9011C22.9586 12.873 23.1197 12.8461 23.2816 12.8203C23.5457 12.7784 23.7822 12.6332 23.9393 12.4169C24.0963 12.2005 24.161 11.9306 24.119 11.6665C24.077 11.4025 23.9319 11.1659 23.7155 11.0089C23.4991 10.8518 23.2292 10.7872 22.9652 10.8291C22.7915 10.8567 22.6181 10.8859 22.4452 10.9168C22.1969 10.9605 21.9741 11.0957 21.8206 11.2957C21.6671 11.4957 21.5941 11.7459 21.6162 11.9971C21.6382 12.2482 21.7535 12.482 21.9394 12.6523C22.1253 12.8225 22.3684 12.9169 22.6205 12.9168Z" fill="#052B98"/>
<path d="M38.636 27.806C39.0181 28.1007 39.4931 28.249 39.975 28.224C40.4569 28.199 40.9139 28.0024 41.2635 27.6697L51.6641 17.7667C51.9093 17.531 52.105 17.2486 52.2396 16.9362C52.3742 16.6238 52.445 16.2877 52.4478 15.9475C52.4507 15.6074 52.3855 15.2701 52.2562 14.9555C52.1269 14.6409 51.936 14.3553 51.6947 14.1155L49.0409 11.509L53.7501 2.99579C53.9821 2.57385 54.0556 2.08284 53.9573 1.61145C53.859 1.14005 53.5954 0.719345 53.214 0.425303C52.8327 0.131261 52.3588 -0.0167335 51.8779 0.00804659C51.397 0.0328267 50.9408 0.228748 50.5917 0.560428L40.2393 10.3911C39.9944 10.6259 39.7988 10.9071 39.6638 11.2183C39.5289 11.5295 39.4573 11.8645 39.4532 12.2038C39.4492 12.543 39.5128 12.8796 39.6403 13.1939C39.7679 13.5083 39.9568 13.794 40.196 14.0346L42.8576 16.6791L38.105 25.2329C37.8709 25.6544 37.7957 26.1458 37.8931 26.618C37.9906 27.0902 38.2542 27.5117 38.636 27.806Z" fill="#052B98"/>
<path d="M16.633 26.2726C16.5747 25.6235 16.3536 24.9996 15.9902 24.4585C14.543 21.8634 13.0958 19.2682 11.6486 16.673C12.2645 15.8283 13.1628 15.2385 13.9003 14.4973C14.6378 13.7561 15.2415 12.7284 15.0151 11.7083C14.7655 10.9581 14.2999 10.2983 13.6768 9.81166C10.5867 6.8789 7.49662 3.94615 4.40653 1.01341C3.68689 0.330407 2.89828 -0.249086 1.86514 0.120592C1.61068 0.213094 1.37699 0.354952 1.1775 0.538018C0.979417 0.712453 0.819377 0.925811 0.707353 1.1648C0.595329 1.40379 0.533721 1.66329 0.526367 1.92712C0.581972 2.57799 0.801821 3.20411 1.16533 3.74687C2.5992 6.32874 4.03211 8.9119 5.46406 11.4964C4.84207 12.3325 3.94361 12.9155 3.20665 13.6528C2.46853 14.3913 1.86634 15.4196 2.09694 16.4371C2.34481 17.1739 2.80247 17.8222 3.41372 18.3025C6.47406 21.2182 9.5344 24.1339 12.5947 27.0497C13.0393 27.5516 13.6061 27.9299 14.2401 28.1481C14.523 28.2017 14.8141 28.1943 15.0939 28.1263C15.3736 28.0582 15.6356 27.9311 15.8622 27.7535C16.0889 27.5759 16.2749 27.3518 16.4078 27.0964C16.5408 26.841 16.6175 26.5601 16.633 26.2726Z" fill="#052B98"/>
<path d="M39.3659 45.9324V33.8197C39.3653 33.2845 39.1524 32.7714 38.774 32.3929C38.3955 32.0144 37.8823 31.8015 37.3471 31.801H35.833V23.0517C35.7884 22.2788 35.4499 21.5522 34.8869 21.0208C34.3239 20.4894 33.579 20.1934 32.8049 20.1934C32.0307 20.1934 31.2858 20.4894 30.7228 21.0208C30.1598 21.5522 29.8214 22.2788 29.7767 23.0517V31.801H24.7298V23.0517C24.6851 22.2788 24.3467 21.5522 23.7837 21.0208C23.2207 20.4894 22.4758 20.1934 21.7016 20.1934C20.9275 20.1934 20.1826 20.4894 19.6196 21.0208C19.0566 21.5522 18.7181 22.2788 18.6735 23.0517V31.801H17.1594C16.6242 31.8015 16.111 32.0144 15.7325 32.3929C15.3541 32.7714 15.1412 33.2845 15.1406 33.8197V45.9324C15.1434 48.3409 16.1014 50.6499 17.8044 52.353C19.5075 54.0561 21.8166 55.0141 24.2251 55.0168H26.2439V63.5966C26.2439 63.8643 26.3502 64.1211 26.5395 64.3104C26.7288 64.4997 26.9855 64.606 27.2532 64.606C27.521 64.606 27.7777 64.4997 27.967 64.3104C28.1563 64.1211 28.2626 63.8643 28.2626 63.5966V55.0168H30.2814C32.6899 55.0141 34.999 54.0561 36.702 52.353C38.4051 50.6499 39.3631 48.3409 39.3659 45.9324ZM31.7955 23.0517C31.8391 22.8158 31.9639 22.6027 32.1483 22.4492C32.3327 22.2958 32.565 22.2118 32.8049 22.2118C33.0447 22.2118 33.277 22.2958 33.4614 22.4492C33.6458 22.6027 33.7706 22.8158 33.8142 23.0517V31.801H31.7955V23.0517ZM20.6922 23.0517C20.7359 22.8158 20.8607 22.6027 21.0451 22.4492C21.2295 22.2958 21.4618 22.2118 21.7016 22.2118C21.9415 22.2118 22.1738 22.2958 22.3582 22.4492C22.5426 22.6027 22.6674 22.8158 22.711 23.0517V31.801H20.6922V23.0517ZM27.2532 49.9699C26.854 49.9699 26.4637 49.8515 26.1317 49.6297C25.7997 49.4079 25.5409 49.0926 25.3881 48.7237C25.2353 48.3548 25.1954 47.9489 25.2733 47.5573C25.3512 47.1657 25.5434 46.806 25.8258 46.5237C26.1081 46.2413 26.4678 46.0491 26.8594 45.9712C27.251 45.8933 27.6569 45.9332 28.0258 46.086C28.3947 46.2388 28.71 46.4976 28.9318 46.8296C29.1536 47.1616 29.272 47.5519 29.272 47.9511C29.2714 48.4864 29.0586 48.9995 28.6801 49.378C28.3016 49.7565 27.7885 49.9693 27.2532 49.9699ZM17.1594 37.8573V35.8385H37.3471V37.8573H17.1594Z" fill="#052B98"/>
</svg>
