<svg width="75" height="75" viewBox="0 0 75 75" fill="none" xmlns="http://www.w3.org/2000/svg">
<path d="M49.0363 49.0091C50.0932 51.1122 50.3282 53.1421 49.6942 54.7284C48.9981 56.4713 47.3528 57.4158 45.4963 57.1315C43.8087 56.874 42.175 55.6433 40.8992 53.6657C39.3802 51.3131 38.3796 47.9331 37.9916 43.8551L37.9941 43.8546C39.5948 43.6375 41.0501 42.806 42.0485 41.5339C45.3676 43.9329 47.7795 46.5117 49.0363 49.0091Z" fill="white"/>
<path d="M31.7801 40.8757C32.6061 42.265 33.9446 43.2758 35.504 43.6955C34.6001 47.6889 33.1766 50.9171 31.3694 53.0582C29.8515 54.8566 28.0756 55.8684 26.3668 55.9101C24.4911 55.953 22.9767 54.8085 22.509 52.9936C22.0826 51.3393 22.5725 49.3544 23.8913 47.4056C25.4632 45.0816 28.1814 42.8324 31.7801 40.8757Z" fill="white"/>
<path d="M56.8281 29.4139C58.3624 30.4908 58.9006 32.3124 58.2016 34.0532C57.5623 35.6378 55.9902 36.9408 53.7717 37.7283C51.135 38.6655 47.6121 38.861 43.5557 38.2991L43.5507 38.2999C43.7102 36.6899 43.2347 35.082 42.2256 33.8174C45.3272 31.1385 48.3852 29.3874 51.1099 28.7394C53.4006 28.1923 55.4302 28.4332 56.8281 29.4139Z" fill="white"/>
<path d="M40.3853 33.8749C41.4351 34.7703 42.0558 36.0667 42.0984 37.4461L42.0999 37.4716C42.1006 37.5075 42.1008 37.5409 42.1015 37.5768C42.1018 37.5947 42.1021 37.6127 42.102 37.6281C42.1011 37.654 42.1005 37.6824 42.0995 37.7083C42.0986 37.7341 42.1001 37.7596 42.0991 37.7855C42.096 37.8297 42.0953 37.8735 42.0922 37.9178C42.089 37.962 42.0859 38.0062 42.0823 38.048C42.0789 38.0742 42.0758 38.103 42.0723 38.1293C42.0688 38.1556 42.0675 38.179 42.0636 38.2027C42.0597 38.2265 42.0575 38.2449 42.0532 38.2661C42.0502 38.2949 42.045 38.3266 42.0419 38.3554C42.0393 38.3712 42.0368 38.3871 42.0342 38.4029C42.0298 38.4397 42.0225 38.4743 42.0157 38.5114C42.0144 38.5193 42.0131 38.5272 42.0097 38.5381C42.0011 38.5806 41.9925 38.6231 41.9836 38.6632C41.984 38.6657 41.9823 38.6711 41.9806 38.6765L41.9848 38.6707C41.6715 40.0766 40.7587 41.2732 39.4858 41.9442C39.41 41.9847 39.3314 42.0231 39.2523 42.059C38.5104 42.4025 37.6936 42.5523 36.8778 42.5013C36.826 42.4994 36.7764 42.4945 36.7242 42.4901L36.7267 42.4897C35.9641 42.4173 35.2294 42.168 34.5825 41.7606C34.508 41.7135 34.436 41.6659 34.3661 41.6155L34.3636 41.6159C33.1018 40.729 32.3307 39.2974 32.2848 37.754L32.2837 37.731C32.2822 37.6901 32.2833 37.6488 32.2818 37.6078C32.2827 37.5974 32.2811 37.5874 32.282 37.577C32.2813 37.5411 32.2836 37.5073 32.2829 37.4714C32.2826 37.4534 32.2823 37.4354 32.2849 37.4196C32.288 37.3754 32.2887 37.3315 32.2918 37.2873C32.295 37.2431 32.2981 37.1989 32.3017 37.1571C32.3018 37.1417 32.3047 37.1283 32.3073 37.1125C32.3117 37.0758 32.3135 37.0395 32.3204 37.0024C32.3196 36.9973 32.3209 36.9894 32.3226 36.984C32.3283 36.9394 32.3339 36.8947 32.3421 36.8497C32.3417 36.8472 32.3413 36.8447 32.3434 36.8418C32.5796 35.3094 33.5303 33.9806 34.9007 33.2605C34.9739 33.2204 35.0526 33.182 35.1317 33.1461C36.6397 32.4501 38.3965 32.5627 39.8045 33.4466C39.876 33.4917 39.9484 33.5417 40.0204 33.5892C40.0636 33.6183 40.1048 33.6502 40.1459 33.6821C40.1576 33.6906 40.1663 33.6969 40.178 33.7053C40.2482 33.7582 40.3193 33.8161 40.3853 33.8749Z" fill="white"/>
<path d="M40.9474 16.7655C42.2151 17.9113 42.8989 19.8378 42.8725 22.1928C42.8435 24.9932 41.8138 28.3665 39.8895 31.9821L39.8508 31.9652C39.8341 31.9576 39.8171 31.9475 39.7979 31.9403C39.7592 31.9234 39.7204 31.9065 39.6817 31.8896L39.6347 31.8689C39.5797 31.8469 39.5272 31.8245 39.4722 31.8025L39.453 31.7953C39.4039 31.7775 39.3543 31.7573 39.3076 31.7391C39.291 31.7315 39.2722 31.7268 39.256 31.7217C39.2176 31.7073 39.1768 31.6933 39.1364 31.6818L39.0822 31.6649C39.0334 31.6496 38.9872 31.6339 38.9388 31.6211L38.9438 31.6203C38.9355 31.6165 38.9276 31.6152 38.9197 31.6139C38.863 31.5973 38.8067 31.5833 38.75 31.5667C38.7342 31.5641 38.7179 31.559 38.7017 31.5539C38.6587 31.5429 38.6183 31.5314 38.5758 31.5228L38.5199 31.5113C38.4774 31.5027 38.4344 31.4916 38.3894 31.4834L38.3443 31.4753C38.2885 31.4637 38.2305 31.4551 38.1725 31.4464L38.1358 31.4421C38.0908 31.4339 38.0436 31.4286 37.9961 31.4209C37.9777 31.4187 37.9594 31.4165 37.9385 31.4147C37.8964 31.4087 37.8546 31.4051 37.8125 31.3991C37.8021 31.3982 37.7887 31.3952 37.7758 31.3947L37.7574 31.3925C37.6999 31.3864 37.6402 31.3831 37.583 31.3795C37.5233 31.3763 37.4662 31.3726 37.4069 31.3719L37.3526 31.3704C37.3113 31.3693 37.2675 31.3687 37.2262 31.3677L37.1694 31.3665C37.1231 31.3663 37.0767 31.366 37.0308 31.3683L36.9949 31.369C36.936 31.3707 36.8772 31.3725 36.8212 31.3764C36.8062 31.3788 36.7907 31.3788 36.7753 31.3787C36.7319 31.3805 36.6889 31.3849 36.6458 31.3893L36.5874 31.3936L36.4608 31.4063C36.4483 31.4083 36.4354 31.4078 36.4228 31.4098L36.4266 31.4169L36.414 31.419C36.3564 31.4283 36.3008 31.4347 36.2432 31.444L36.2131 31.4488L36.0702 31.4719L36.0096 31.4791C35.9695 31.4855 35.9298 31.4945 35.8926 31.5031C35.8726 31.5063 35.8529 31.5121 35.8329 31.5153C35.7857 31.5255 35.7384 31.5357 35.6916 31.5484L35.6619 31.5558C35.6076 31.5697 35.5508 31.584 35.4968 31.6004C35.4772 31.6061 35.46 31.6115 35.4404 31.6172C35.4011 31.6287 35.3643 31.6398 35.325 31.6513L35.264 31.6714L35.2272 31.6825C33.7806 27.8497 33.1911 24.3721 33.5191 21.5908C33.795 19.2521 34.7199 17.4286 36.1211 16.454C36.8911 15.9182 37.7506 15.6818 38.5902 15.7367C39.4297 15.7915 40.2494 16.1374 40.9474 16.7655Z" fill="white"/>
<path d="M32.6341 33.2046C31.4728 34.3282 30.7945 35.8625 30.7469 37.4802C26.6508 37.5187 23.1832 36.8771 20.685 35.611C18.5846 34.5483 17.191 33.0525 16.7596 31.3989C16.2868 29.5849 17.0505 27.8465 18.7126 26.9739C19.5686 26.5245 20.5952 26.3358 21.7227 26.4059C22.5882 26.4617 23.5141 26.6698 24.4678 27.0329C27.0866 28.0248 29.9013 30.1529 32.6341 33.2046Z" fill="white"/>
<path d="M61.1922 7.87692L12.7599 8.35187C10.0406 8.37913 7.84969 10.6127 7.87695 13.332L8.35149 61.7618C8.37875 64.4811 10.6124 66.672 13.3316 66.6447L61.7614 66.1702C64.4807 66.1429 66.6716 63.9093 66.6443 61.1901L66.1724 12.7598C66.1451 10.0406 63.9119 7.85216 61.1922 7.87692ZM14.0186 62.0581C14.0228 62.4663 13.7813 62.8345 13.406 62.9953C13.0328 63.1533 12.5979 63.0717 12.3075 62.7868C12.0172 62.5019 11.9268 62.0689 12.0794 61.6919C12.2296 61.3153 12.5957 61.0659 13.0015 61.0622C13.2686 61.0602 13.5269 61.1626 13.7167 61.3506C13.9061 61.5361 14.0167 61.7909 14.0186 62.0581ZM10.7305 12.2407C10.7268 11.8349 10.9679 11.4642 11.3436 11.3059C11.7163 11.1454 12.1513 11.227 12.4416 11.5119C12.7319 11.7969 12.8224 12.2298 12.6697 12.6068C12.5175 12.9863 12.1535 13.2328 11.7477 13.2365C11.4809 13.241 11.2223 13.1361 11.0329 12.9506C10.8406 12.7631 10.7325 12.5078 10.7305 12.2407ZM63.2267 61.5765C63.2309 61.9847 62.9894 62.3529 62.6141 62.5137C62.2384 62.6721 61.806 62.5901 61.5156 62.3052C61.2253 62.0202 61.1349 61.5873 61.285 61.2107C61.4377 60.8337 61.8038 60.5843 62.2096 60.5806C62.4767 60.5786 62.735 60.681 62.9248 60.869C63.1142 61.0545 63.2248 61.3093 63.2267 61.5765ZM41.0334 60.6361C28.1243 62.7191 15.9701 53.9422 13.8871 41.0331C11.8041 28.1239 20.5809 15.9697 33.4901 13.8868C46.3992 11.8038 58.5534 20.5806 60.6364 33.4897C62.7194 46.3989 53.9425 58.5531 41.0334 60.6361ZM63.2973 11.7266C63.3015 12.1348 63.06 12.503 62.6869 12.6609C62.3116 12.8218 61.8766 12.7402 61.5863 12.4553C61.296 12.1704 61.2056 11.7374 61.3582 11.3604C61.5109 10.9834 61.8745 10.7345 62.2827 10.7303C62.8375 10.7257 63.2927 11.1718 63.2973 11.7266Z" fill="white"/>
</svg>
