<svg width="54" height="65" viewBox="0 0 54 65" fill="none" xmlns="http://www.w3.org/2000/svg">
<path d="M5.17145 49.9126C5.04119 49.6792 4.82362 49.507 4.56651 49.4338C4.3094 49.3606 4.03376 49.3925 3.8001 49.5223C3.56645 49.6522 3.39387 49.8695 3.32026 50.1265C3.24665 50.3835 3.27803 50.6591 3.4075 50.893C3.49252 51.0451 3.57877 51.1968 3.66626 51.3483C3.80018 51.5799 4.02065 51.749 4.27918 51.8181C4.5377 51.8872 4.81311 51.8508 5.0448 51.7169C5.27649 51.583 5.4455 51.3625 5.51463 51.104C5.58377 50.8455 5.54738 50.5701 5.41346 50.3384C5.33139 50.1971 5.25072 50.0552 5.17145 49.9126Z" fill="#052B98"/>
<path d="M3.5487 46.3668C3.49252 46.2132 3.43773 46.0592 3.38434 45.9046C3.2967 45.6519 3.1123 45.4442 2.87166 45.3274C2.63101 45.2105 2.35381 45.1939 2.10097 45.2813C1.84812 45.3687 1.64032 45.5529 1.52321 45.7935C1.40611 46.034 1.3893 46.3112 1.47646 46.5641C1.53388 46.7295 1.59261 46.8943 1.65266 47.0587C1.74492 47.3095 1.93286 47.5134 2.17526 47.6258C2.41766 47.7382 2.69474 47.7499 2.94573 47.6583C3.19673 47.5667 3.40116 47.3793 3.51419 47.1372C3.62723 46.8951 3.63964 46.618 3.5487 46.3668Z" fill="#052B98"/>
<path d="M5.2727 23.3493C5.15915 23.2808 5.03324 23.2355 4.90215 23.2157C4.77106 23.196 4.63736 23.2023 4.5087 23.2342C4.38004 23.2661 4.25893 23.3231 4.1523 23.4019C4.04567 23.4807 3.95561 23.5797 3.88725 23.6933C3.79657 23.8444 3.70711 23.9963 3.61889 24.149C3.48719 24.3809 3.45268 24.6556 3.52292 24.9129C3.59316 25.1702 3.76243 25.3892 3.99371 25.522C4.22499 25.6549 4.49946 25.6907 4.7571 25.6217C5.01474 25.5528 5.23459 25.3846 5.36856 25.1539C5.45013 25.0127 5.53301 24.8723 5.61721 24.7327C5.68552 24.6192 5.7308 24.4935 5.75045 24.3625C5.7701 24.2316 5.76375 24.098 5.73175 23.9695C5.69976 23.8411 5.64274 23.7201 5.56397 23.6137C5.4852 23.5073 5.38622 23.4174 5.2727 23.3493Z" fill="#052B98"/>
<path d="M2.40629 42.1285C2.37795 41.9685 2.35109 41.8086 2.32595 41.6476C2.284 41.3837 2.13907 41.1472 1.92296 40.9899C1.70684 40.8327 1.43719 40.7676 1.17314 40.8089C0.909089 40.8502 0.672203 40.9945 0.514439 41.2103C0.356675 41.426 0.290914 41.6955 0.331581 41.9597C0.358935 42.1344 0.387932 42.3081 0.41857 42.4809C0.460146 42.7139 0.582361 42.9249 0.763828 43.077C0.945295 43.229 1.17445 43.3124 1.4112 43.3126C1.47078 43.3127 1.53024 43.3074 1.58888 43.2968C1.7193 43.2739 1.84391 43.2254 1.95559 43.1542C2.06728 43.0831 2.16383 42.9906 2.23975 42.8821C2.31567 42.7736 2.36945 42.6511 2.39803 42.5218C2.4266 42.3925 2.42941 42.2589 2.40629 42.1285Z" fill="#052B98"/>
<path d="M7.63152 53.552C7.46343 53.3448 7.22005 53.2126 6.95469 53.1844C6.68933 53.1562 6.4236 53.2343 6.21569 53.4016C6.00779 53.5689 5.87465 53.8117 5.84543 54.077C5.8162 54.3422 5.89328 54.6082 6.05978 54.8168C6.17067 54.9546 6.28313 55.0908 6.39714 55.2253C6.5693 55.4301 6.81576 55.558 7.08229 55.5811C7.34881 55.6042 7.61358 55.5204 7.81835 55.3482C8.02311 55.1761 8.1511 54.9296 8.17416 54.6631C8.19721 54.3966 8.11345 54.1318 7.94129 53.927C7.8368 53.803 7.73355 53.678 7.63152 53.552Z" fill="#052B98"/>
<path d="M10.6821 56.711C10.5823 56.624 10.4663 56.5574 10.3408 56.5152C10.2153 56.473 10.0827 56.4559 9.95058 56.4649C9.81846 56.4739 9.68941 56.5088 9.57079 56.5677C9.45218 56.6266 9.34632 56.7082 9.25927 56.808C9.17221 56.9078 9.10566 57.0238 9.06342 57.1493C9.02118 57.2748 9.00407 57.4074 9.01308 57.5395C9.02208 57.6716 9.05702 57.8006 9.11589 57.9193C9.17477 58.0379 9.25644 58.1437 9.35622 58.2308C9.48905 58.3464 9.62303 58.4608 9.75816 58.5738C9.85962 58.6589 9.97685 58.7231 10.1032 58.7629C10.2295 58.8027 10.3624 58.8172 10.4943 58.8056C10.6262 58.794 10.7545 58.7566 10.8719 58.6954C10.9894 58.6342 11.0936 58.5505 11.1787 58.449C11.2638 58.3475 11.328 58.2303 11.3678 58.104C11.4076 57.9777 11.4221 57.8448 11.4105 57.7129C11.3989 57.581 11.3614 57.4527 11.3003 57.3352C11.2391 57.2178 11.1554 57.1136 11.0539 57.0285C10.929 56.9237 10.805 56.8178 10.6821 56.711Z" fill="#052B98"/>
<path d="M14.6579 59.5468C14.5167 59.4651 14.3762 59.3822 14.2365 59.2982C14.0075 59.1599 13.733 59.1182 13.4734 59.1823C13.2137 59.2464 12.9901 59.4111 12.8518 59.64C12.7135 59.8689 12.6718 60.1434 12.7359 60.4031C12.8 60.6628 12.9646 60.8863 13.1936 61.0246C13.3447 61.1157 13.4968 61.2051 13.65 61.2929C13.7646 61.3594 13.8913 61.4026 14.0227 61.4201C14.1541 61.4376 14.2876 61.429 14.4157 61.3948C14.5437 61.3606 14.6638 61.3015 14.769 61.2208C14.8742 61.1402 14.9624 61.0396 15.0287 60.9248C15.095 60.81 15.1379 60.6832 15.1552 60.5518C15.1724 60.4204 15.1635 60.2869 15.1291 60.1589C15.0946 60.0309 15.0353 59.9109 14.9544 59.8059C14.8736 59.7009 14.7728 59.6128 14.6579 59.5468Z" fill="#052B98"/>
<path d="M2.01877 37.7071C2.01877 37.5599 2.02 37.4131 2.02247 37.2666C2.02704 36.9991 1.92518 36.7408 1.7393 36.5485C1.55343 36.3562 1.29876 36.2455 1.03132 36.241H1.01308C0.748683 36.2408 0.494798 36.3445 0.3061 36.5297C0.117403 36.7149 0.00898793 36.9668 0.00420192 37.2312C0.00124442 37.3896 -0.000151808 37.5483 1.30585e-05 37.7071V37.7568C0.000609497 37.8879 0.0273183 38.0177 0.0785815 38.1384C0.129845 38.2592 0.204636 38.3685 0.298593 38.46C0.39255 38.5515 0.503792 38.6234 0.62583 38.6715C0.747868 38.7196 0.87826 38.7429 1.0094 38.7401C1.27947 38.7346 1.53658 38.6232 1.72537 38.43C1.91415 38.2368 2.01952 37.9772 2.01877 37.7071Z" fill="#052B98"/>
<path d="M35.8096 13.9947C35.9636 14.0503 36.1171 14.1073 36.2702 14.1655C36.5202 14.261 36.798 14.2532 37.0423 14.144C37.2866 14.0347 37.4776 13.8328 37.5731 13.5828C37.5929 13.5285 37.608 13.4727 37.6183 13.4158C37.5481 13.1713 37.4985 12.9214 37.4698 12.6687C37.3545 12.4924 37.1865 12.357 36.9898 12.2816C36.8249 12.2191 36.6594 12.1579 36.4932 12.098C36.3686 12.0529 36.2364 12.0328 36.104 12.0389C35.9717 12.045 35.8418 12.0771 35.7219 12.1334C35.6019 12.1897 35.4942 12.269 35.405 12.367C35.3158 12.4649 35.2467 12.5795 35.2018 12.7041C35.1569 12.8288 35.137 12.961 35.1432 13.0934C35.1494 13.2257 35.1817 13.3555 35.2382 13.4754C35.2946 13.5953 35.3741 13.7028 35.4722 13.792C35.5702 13.8811 35.6849 13.95 35.8096 13.9947Z" fill="#052B98"/>
<path d="M1.22334 34.2016C1.2803 34.2116 1.33802 34.2165 1.39585 34.2164C1.63352 34.2161 1.86349 34.1321 2.04525 33.9789C2.22701 33.8258 2.3489 33.6134 2.38946 33.3792C2.41706 33.2183 2.44638 33.0588 2.47719 32.8989C2.52753 32.6361 2.47146 32.364 2.32129 32.1426C2.17112 31.9211 1.93915 31.7683 1.67638 31.7178C1.41361 31.6674 1.14154 31.7233 0.919989 31.8733C0.698437 32.0234 0.545534 32.2552 0.494894 32.518C0.461625 32.6907 0.429917 32.8639 0.39977 33.0377C0.377378 33.1682 0.380921 33.3018 0.410197 33.431C0.439473 33.5601 0.493908 33.6822 0.570391 33.7903C0.646874 33.8984 0.743905 33.9903 0.855942 34.0609C0.967978 34.1315 1.09282 34.1793 1.22334 34.2016Z" fill="#052B98"/>
<path d="M2.2231 29.7432C2.34771 29.7885 2.48001 29.8087 2.61244 29.8027C2.74487 29.7968 2.87483 29.7648 2.99488 29.7086C3.11493 29.6524 3.22271 29.573 3.31207 29.4751C3.40142 29.3772 3.47059 29.2626 3.51562 29.1379C3.57131 28.9839 3.62873 28.8308 3.68738 28.6773C3.7828 28.4272 3.77497 28.1495 3.66562 27.9052C3.55627 27.6609 3.35435 27.4701 3.10429 27.3747C2.85424 27.2792 2.57651 27.2871 2.33223 27.3964C2.08794 27.5058 1.8971 27.7077 1.80169 27.9577C1.7386 28.1221 1.67707 28.2872 1.61711 28.4528C1.57211 28.5774 1.55209 28.7095 1.5582 28.8418C1.56431 28.974 1.59642 29.1038 1.6527 29.2236C1.70897 29.3435 1.78832 29.451 1.88619 29.5402C1.98407 29.6293 2.09855 29.6983 2.2231 29.7432Z" fill="#052B98"/>
<path d="M35.9032 61.3854C35.7509 61.441 35.5979 61.4952 35.4443 61.5478C35.319 61.5906 35.2035 61.6577 35.1041 61.7451C35.0048 61.8326 34.9236 61.9387 34.8653 62.0576C34.807 62.1764 34.7726 62.3055 34.7642 62.4376C34.7558 62.5697 34.7735 62.7021 34.8163 62.8274C34.8591 62.9526 34.9261 63.0682 35.0136 63.1676C35.101 63.2669 35.2072 63.3481 35.326 63.4064C35.4448 63.4647 35.574 63.499 35.7061 63.5074C35.8382 63.5159 35.9706 63.4982 36.0959 63.4554C36.2632 63.3988 36.4299 63.34 36.5961 63.2792C36.7208 63.2339 36.8353 63.1645 36.9331 63.0749C37.0309 62.9854 37.1101 62.8774 37.1661 62.7571C37.2221 62.6369 37.2538 62.5068 37.2594 62.3743C37.2651 62.2418 37.2445 62.1095 37.199 61.9849C37.1534 61.8604 37.0837 61.746 36.9939 61.6485C36.904 61.5509 36.7958 61.472 36.6755 61.4163C36.5551 61.3606 36.4249 61.3292 36.2924 61.3239C36.1599 61.3186 36.0276 61.3395 35.9032 61.3854Z" fill="#052B98"/>
<path d="M46.5881 53.901C46.4832 54.0255 46.3771 54.149 46.27 54.2715C46.0962 54.4735 46.0094 54.736 46.0285 55.0018C46.0476 55.2675 46.171 55.515 46.3718 55.69C46.5727 55.8651 46.8346 55.9536 47.1005 55.9363C47.3664 55.9189 47.6146 55.7971 47.791 55.5974C47.9068 55.465 48.0214 55.3313 48.1347 55.1963C48.2198 55.0947 48.284 54.9774 48.3237 54.851C48.3634 54.7247 48.3779 54.5917 48.3662 54.4598C48.3545 54.3278 48.317 54.1995 48.2557 54.082C48.1944 53.9646 48.1106 53.8604 48.0091 53.7753C47.9075 53.6903 47.7902 53.626 47.6639 53.5863C47.5375 53.5466 47.4045 53.5322 47.2726 53.5438C47.1406 53.5555 47.0123 53.593 46.8948 53.6543C46.7774 53.7156 46.6732 53.7994 46.5881 53.901Z" fill="#052B98"/>
<path d="M31.561 12.8752C31.7214 12.9022 31.8813 12.9318 32.0405 12.9623C32.1039 12.9744 32.1682 12.9805 32.2327 12.9805C32.4836 12.9806 32.7254 12.8871 32.911 12.7183C33.0966 12.5496 33.2126 12.3177 33.2363 12.068C33.26 11.8183 33.1898 11.5687 33.0393 11.368C32.8888 11.1674 32.6689 11.03 32.4225 10.9829C32.249 10.9494 32.0752 10.9178 31.9011 10.8879C31.7706 10.8655 31.6369 10.8691 31.5078 10.8984C31.3787 10.9277 31.2566 10.9821 31.1485 11.0586C31.0404 11.135 30.9484 11.2321 30.8778 11.3441C30.8073 11.4561 30.7594 11.5809 30.7371 11.7114C30.7148 11.842 30.7184 11.9756 30.7477 12.1047C30.777 12.2338 30.8315 12.3559 30.908 12.464C30.9845 12.572 31.0815 12.664 31.1936 12.7345C31.3056 12.8051 31.4305 12.8529 31.561 12.8752Z" fill="#052B98"/>
<path d="M43.4783 57.0058C43.3536 57.1101 43.2279 57.2137 43.1012 57.3163C42.8935 57.4846 42.7611 57.7284 42.7331 57.9942C42.7051 58.2601 42.7838 58.5261 42.9519 58.7339C43.1199 58.9418 43.3637 59.0744 43.6295 59.1026C43.8953 59.1308 44.1614 59.0523 44.3694 58.8843C44.5064 58.7741 44.6422 58.6624 44.777 58.5492C44.879 58.4641 44.9633 58.3598 45.0249 58.2421C45.0865 58.1243 45.1242 57.9956 45.1359 57.8633C45.1476 57.731 45.1331 57.5976 45.0931 57.4709C45.0531 57.3442 44.9885 57.2267 44.903 57.1251C44.8174 57.0234 44.7127 56.9397 44.5947 56.8786C44.4767 56.8176 44.3478 56.7805 44.2154 56.7694C44.083 56.7583 43.9497 56.7735 43.8232 56.8141C43.6967 56.8546 43.5795 56.9198 43.4783 57.0058Z" fill="#052B98"/>
<path d="M39.8804 59.5281C39.7392 59.6098 39.5972 59.6901 39.4544 59.7692C39.2207 59.8993 39.0483 60.1168 38.9751 60.374C38.9018 60.6312 38.9338 60.9069 39.0638 61.1405C39.1939 61.3742 39.4114 61.5466 39.6686 61.6198C39.9258 61.6931 40.2015 61.6611 40.4352 61.5311C40.5884 61.4459 40.7408 61.3596 40.8923 61.2722C41.0068 61.2058 41.1072 61.1175 41.1876 61.0123C41.268 60.907 41.3269 60.787 41.3609 60.6591C41.3949 60.5311 41.4034 60.3977 41.3859 60.2664C41.3683 60.1352 41.3251 60.0087 41.2586 59.8941C41.1922 59.7796 41.1038 59.6793 40.9986 59.5989C40.8934 59.5185 40.7733 59.4596 40.6454 59.4256C40.5174 59.3916 40.384 59.3832 40.2527 59.4008C40.1215 59.4183 39.995 59.4616 39.8804 59.5281Z" fill="#052B98"/>
<path d="M31.6572 62.5223C31.4972 62.5509 31.3369 62.5774 31.1761 62.602C30.9252 62.6408 30.6981 62.773 30.5404 62.9719C30.3826 63.1709 30.3058 63.4222 30.3252 63.6753C30.3447 63.9285 30.459 64.1651 30.6453 64.3376C30.8316 64.5102 31.0762 64.606 31.3302 64.606C31.3825 64.606 31.4349 64.602 31.4866 64.5942C31.6614 64.5667 31.8357 64.5378 32.0096 64.5076C32.14 64.4845 32.2645 64.4359 32.3762 64.3647C32.4878 64.2934 32.5843 64.2009 32.6601 64.0923C32.736 63.9838 32.7897 63.8614 32.8182 63.732C32.8468 63.6027 32.8495 63.4691 32.8264 63.3387C32.8032 63.2083 32.7546 63.0837 32.6834 62.9721C32.6121 62.8605 32.5195 62.7641 32.4109 62.6883C32.3023 62.6125 32.1799 62.5588 32.0506 62.5303C31.9212 62.5018 31.7876 62.4991 31.6572 62.5223Z" fill="#052B98"/>
<path d="M22.8964 62.5306C22.7363 62.5031 22.5766 62.4737 22.4174 62.4425C22.2872 62.4163 22.1531 62.4161 22.0228 62.4419C21.8926 62.4677 21.7687 62.5189 21.6582 62.5928C21.5478 62.6666 21.4531 62.7615 21.3795 62.872C21.3059 62.9825 21.2548 63.1065 21.2293 63.2368C21.2037 63.3672 21.2042 63.5012 21.2306 63.6314C21.257 63.7615 21.3089 63.8852 21.3833 63.9952C21.4576 64.1052 21.553 64.1995 21.6639 64.2726C21.7748 64.3456 21.8991 64.396 22.0295 64.4209C22.2025 64.4549 22.3765 64.4864 22.5509 64.5169C22.6084 64.5267 22.6666 64.5316 22.7249 64.5316C22.9773 64.5316 23.2205 64.4369 23.4064 64.2662C23.5924 64.0955 23.7075 63.8613 23.729 63.6099C23.7506 63.3584 23.677 63.108 23.5228 62.9082C23.3687 62.7083 23.1451 62.5736 22.8964 62.5306Z" fill="#052B98"/>
<path d="M18.6459 61.4012C18.4918 61.3455 18.3387 61.2883 18.1865 61.2294C18.0629 61.1814 17.9311 61.1582 17.7985 61.1611C17.666 61.1641 17.5353 61.1932 17.414 61.2468C17.2927 61.3003 17.1832 61.3772 17.0917 61.4732C17.0002 61.5691 16.9285 61.6822 16.8807 61.8058C16.8329 61.9295 16.81 62.0614 16.8133 62.194C16.8166 62.3265 16.8459 62.4571 16.8998 62.5783C16.9536 62.6994 17.0308 62.8088 17.1269 62.9001C17.223 62.9914 17.3362 63.0629 17.46 63.1104C17.6246 63.1738 17.7902 63.2357 17.9568 63.2959C18.0813 63.3412 18.2134 63.3615 18.3457 63.3558C18.478 63.35 18.6078 63.3182 18.7278 63.2622C18.8478 63.2063 18.9556 63.1272 19.045 63.0295C19.1345 62.9319 19.2038 62.8176 19.249 62.6932C19.2943 62.5687 19.3146 62.4366 19.3088 62.3043C19.3029 62.172 19.2711 62.0422 19.2151 61.9222C19.1591 61.8022 19.08 61.6945 18.9823 61.6051C18.8846 61.5157 18.7703 61.4464 18.6459 61.4012Z" fill="#052B98"/>
<path d="M18.2086 14.1079C18.3269 14.1078 18.4443 14.0868 18.5553 14.0459C18.7091 13.9898 18.8634 13.935 19.0183 13.8815C19.1437 13.8384 19.2593 13.7709 19.3586 13.683C19.4578 13.5951 19.5388 13.4885 19.5968 13.3693C19.6548 13.25 19.6887 13.1205 19.6965 12.9882C19.7044 12.8558 19.686 12.7232 19.6426 12.5979C19.5991 12.4727 19.5314 12.3572 19.4432 12.2582C19.355 12.1592 19.2482 12.0785 19.1288 12.0208C19.0095 11.9631 18.8799 11.9296 18.7475 11.922C18.6151 11.9145 18.4826 11.9332 18.3574 11.977C18.1911 12.0345 18.0259 12.0933 17.8618 12.1532C17.6391 12.2344 17.4522 12.3914 17.3338 12.5968C17.2155 12.8022 17.1733 13.0427 17.2147 13.2761C17.2561 13.5095 17.3784 13.7208 17.5602 13.8729C17.742 14.0251 17.9715 14.1083 18.2086 14.1079Z" fill="#052B98"/>
<path d="M27.1754 12.5095H27.2533C27.3913 12.5095 27.5291 12.5106 27.6668 12.5129H27.6843C27.9504 12.5133 28.2058 12.4084 28.3949 12.2212C28.584 12.034 28.6914 11.7795 28.6936 11.5134C28.6959 11.2474 28.5928 10.9912 28.4069 10.8008C28.221 10.6104 27.9673 10.5012 27.7013 10.4971C27.5524 10.4947 27.4031 10.4935 27.2533 10.4937H27.1754C27.043 10.4937 26.912 10.5197 26.7897 10.5704C26.6674 10.621 26.5563 10.6953 26.4627 10.7889C26.3691 10.8825 26.2949 10.9936 26.2442 11.1159C26.1936 11.2381 26.1675 11.3692 26.1675 11.5016C26.1675 11.6339 26.1936 11.765 26.2442 11.8873C26.2949 12.0096 26.3691 12.1207 26.4627 12.2143C26.5563 12.3079 26.6674 12.3821 26.7897 12.4328C26.912 12.4834 27.043 12.5095 27.1754 12.5095Z" fill="#052B98"/>
<path d="M22.62 12.9169C22.6795 12.917 22.739 12.9117 22.7976 12.9012C22.9581 12.8731 23.1192 12.8462 23.2811 12.8205C23.5452 12.7785 23.7818 12.6334 23.9388 12.417C24.0958 12.2006 24.1605 11.9307 24.1185 11.6666C24.0766 11.4026 23.9314 11.166 23.715 11.009C23.4987 10.852 23.2288 10.7873 22.9647 10.8293C22.791 10.8568 22.6176 10.886 22.4447 10.9169C22.1964 10.9606 21.9736 11.0958 21.8201 11.2958C21.6666 11.4958 21.5937 11.7461 21.6157 11.9972C21.6377 12.2483 21.753 12.4821 21.9389 12.6524C22.1248 12.8226 22.3679 12.917 22.62 12.9169Z" fill="#052B98"/>
<path d="M38.636 27.806C39.0181 28.1007 39.4931 28.249 39.975 28.224C40.4569 28.199 40.9139 28.0024 41.2635 27.6697L51.6641 17.7667C51.9093 17.531 52.105 17.2486 52.2396 16.9362C52.3742 16.6238 52.445 16.2877 52.4478 15.9475C52.4507 15.6074 52.3855 15.2701 52.2562 14.9555C52.1269 14.6409 51.936 14.3553 51.6947 14.1155L49.0409 11.509L53.7501 2.99579C53.9821 2.57385 54.0556 2.08284 53.9573 1.61145C53.859 1.14005 53.5954 0.719345 53.214 0.425303C52.8327 0.131261 52.3588 -0.0167335 51.8779 0.00804659C51.397 0.0328267 50.9408 0.228748 50.5917 0.560428L40.2393 10.3911C39.9944 10.6259 39.7988 10.9071 39.6638 11.2183C39.5289 11.5295 39.4573 11.8645 39.4532 12.2038C39.4492 12.543 39.5128 12.8796 39.6403 13.1939C39.7679 13.5083 39.9568 13.794 40.196 14.0346L42.8576 16.6791L38.105 25.2329C37.8709 25.6544 37.7957 26.1458 37.8931 26.618C37.9906 27.0902 38.2542 27.5117 38.636 27.806Z" fill="#052B98"/>
<path d="M16.633 26.2726C16.5747 25.6235 16.3536 24.9996 15.9902 24.4585C14.543 21.8634 13.0958 19.2682 11.6486 16.673C12.2645 15.8283 13.1628 15.2385 13.9003 14.4973C14.6378 13.7561 15.2415 12.7284 15.0151 11.7083C14.7655 10.9581 14.2999 10.2983 13.6768 9.81166C10.5867 6.8789 7.49662 3.94615 4.40653 1.01341C3.68689 0.330407 2.89828 -0.249086 1.86514 0.120592C1.61068 0.213094 1.37699 0.354952 1.1775 0.538018C0.979417 0.712453 0.819377 0.925811 0.707353 1.1648C0.595329 1.40379 0.533721 1.66329 0.526367 1.92712C0.581972 2.57799 0.801821 3.20411 1.16533 3.74687C2.5992 6.32874 4.03211 8.9119 5.46406 11.4964C4.84207 12.3325 3.94361 12.9155 3.20665 13.6528C2.46853 14.3913 1.86634 15.4196 2.09694 16.4371C2.34481 17.1739 2.80247 17.8222 3.41372 18.3025C6.47406 21.2182 9.5344 24.1339 12.5947 27.0497C13.0393 27.5516 13.6061 27.9299 14.2401 28.1481C14.523 28.2017 14.8141 28.1943 15.0939 28.1263C15.3736 28.0582 15.6356 27.9311 15.8622 27.7535C16.0889 27.5759 16.2749 27.3518 16.4078 27.0964C16.5408 26.841 16.6175 26.5601 16.633 26.2726Z" fill="#052B98"/>
<path d="M39.3659 45.9324V33.8197C39.3653 33.2845 39.1524 32.7714 38.774 32.3929C38.3955 32.0144 37.8823 31.8015 37.3471 31.801H35.833V23.0517C35.7884 22.2788 35.4499 21.5522 34.8869 21.0208C34.3239 20.4894 33.579 20.1934 32.8049 20.1934C32.0307 20.1934 31.2858 20.4894 30.7228 21.0208C30.1598 21.5522 29.8214 22.2788 29.7767 23.0517V31.801H24.7298V23.0517C24.6851 22.2788 24.3467 21.5522 23.7837 21.0208C23.2207 20.4894 22.4758 20.1934 21.7016 20.1934C20.9275 20.1934 20.1826 20.4894 19.6196 21.0208C19.0566 21.5522 18.7181 22.2788 18.6735 23.0517V31.801H17.1594C16.6242 31.8015 16.111 32.0144 15.7325 32.3929C15.3541 32.7714 15.1412 33.2845 15.1406 33.8197V45.9324C15.1434 48.3409 16.1014 50.6499 17.8044 52.353C19.5075 54.0561 21.8166 55.0141 24.2251 55.0168H26.2439V63.5966C26.2439 63.8643 26.3502 64.1211 26.5395 64.3104C26.7288 64.4997 26.9855 64.606 27.2532 64.606C27.521 64.606 27.7777 64.4997 27.967 64.3104C28.1563 64.1211 28.2626 63.8643 28.2626 63.5966V55.0168H30.2814C32.6899 55.0141 34.999 54.0561 36.702 52.353C38.4051 50.6499 39.3631 48.3409 39.3659 45.9324ZM31.7955 23.0517C31.8391 22.8158 31.9639 22.6027 32.1483 22.4492C32.3327 22.2958 32.565 22.2118 32.8049 22.2118C33.0447 22.2118 33.277 22.2958 33.4614 22.4492C33.6458 22.6027 33.7706 22.8158 33.8142 23.0517V31.801H31.7955V23.0517ZM20.6922 23.0517C20.7359 22.8158 20.8607 22.6027 21.0451 22.4492C21.2295 22.2958 21.4618 22.2118 21.7016 22.2118C21.9415 22.2118 22.1738 22.2958 22.3582 22.4492C22.5426 22.6027 22.6674 22.8158 22.711 23.0517V31.801H20.6922V23.0517ZM27.2532 49.9699C26.854 49.9699 26.4637 49.8515 26.1317 49.6297C25.7997 49.4079 25.5409 49.0926 25.3881 48.7237C25.2353 48.3548 25.1954 47.9489 25.2733 47.5573C25.3512 47.1657 25.5434 46.806 25.8258 46.5237C26.1081 46.2413 26.4678 46.0491 26.8594 45.9712C27.251 45.8933 27.6569 45.9332 28.0258 46.086C28.3947 46.2388 28.71 46.4976 28.9318 46.8296C29.1536 47.1616 29.272 47.5519 29.272 47.9511C29.2714 48.4864 29.0586 48.9995 28.6801 49.378C28.3016 49.7565 27.7885 49.9693 27.2532 49.9699ZM17.1594 37.8573V35.8385H37.3471V37.8573H17.1594Z" fill="#052B98"/>
</svg>
