<svg width="70" height="70" viewBox="0 0 70 70" fill="none" xmlns="http://www.w3.org/2000/svg">
<path d="M35.0001 0.00537109C15.6898 0.00537109 0 15.6952 0 35.0053C0 54.3157 15.6898 70.0054 35.0001 70.0054C54.3103 70.0054 70.0001 54.3157 70.0001 35.0053C70.0001 15.6952 54.3103 0.00537109 35.0001 0.00537109ZM35.0001 3.3387C52.5089 3.3387 66.6668 17.4966 66.6668 35.0053C66.6668 52.5144 52.5089 66.6721 35.0001 66.6721C17.4913 66.6721 3.33334 52.5144 3.33334 35.0053C3.33334 17.4966 17.4913 3.3387 35.0001 3.3387ZM37.448 11.2033C30.7297 11.119 26.085 17.1691 24.8633 21.3856C24.2136 23.6281 24.5436 27.1121 26.8295 27.9221C31.6472 29.6291 34.4641 24.7142 38.6785 24.7645C42.736 24.8175 44.9171 26.1282 48.672 27.8635C49.4532 26.3785 49.8757 24.7508 49.9024 23.0978C49.9801 16.8723 44.1671 11.2867 37.448 11.2033ZM22.3178 26.2424C20.64 26.259 19.0128 26.6655 17.5456 27.4273C12.0307 30.3167 9.88239 38.0833 13.0013 44.0354C16.1192 49.987 23.6455 51.2007 27.9363 50.2724C30.2182 49.7787 33.1273 47.8314 32.754 45.4351C31.9672 40.3847 26.3005 40.2416 24.3425 36.5093C22.4613 32.9138 22.5748 30.3708 22.3178 26.2424ZM47.5847 29.6278C46.6649 29.5675 45.7927 29.7858 45.1368 30.4156C41.4504 33.956 44.5848 38.67 42.6498 42.4144C40.7828 46.0171 38.6322 47.3887 35.3972 49.9664C36.3741 51.3307 37.6362 52.4304 39.1016 53.1958C44.6312 56.0571 52.2313 53.369 55.3191 47.4013C58.4074 41.4344 55.0829 34.5705 51.8621 31.5875C50.7915 30.596 49.1177 29.7285 47.5847 29.6278ZM35.0001 31.6721C34.116 31.6721 33.2682 32.0233 32.6431 32.6484C32.018 33.2735 31.6668 34.1213 31.6667 35.0053C31.6667 35.8894 32.0179 36.7373 32.6431 37.3624C33.2682 37.9875 34.116 38.3387 35.0001 38.3387C35.8841 38.3387 36.732 37.9875 37.3571 37.3624C37.9822 36.7373 38.3334 35.8894 38.3334 35.0053C38.3334 34.1213 37.9822 33.2735 37.3571 32.6484C36.7319 32.0233 35.8841 31.6721 35.0001 31.6721Z" fill="#052B98"/>
</svg>
