<svg width="52" height="52" viewBox="0 0 52 52" fill="none" xmlns="http://www.w3.org/2000/svg">
<path d="M52 4.07803C51.9942 1.83887 50.2203 0.0184572 47.9695 0.00682514C47.3879 0.00682514 46.8063 0.00682514 46.2189 0.00682514H4.30875C4.15172 0.00682514 3.98887 0.00100904 3.83184 0.0126411C2.04633 0.0998812 0.412028 1.40848 0.0863314 3.20563C-0.0299887 3.84539 0.00490723 4.5026 0.00490723 5.14817V47.3142C0.00490723 47.5236 0.00490723 47.7388 0.00490723 47.9482C0.00490723 48.9834 0.371316 49.9605 1.06924 50.7282C1.82532 51.5599 2.93036 52.0019 4.04703 52.0077C4.24478 52.0077 4.4367 52.0077 4.63445 52.0077H48.0102C49.8132 51.9845 51.4707 50.7457 51.8837 48.966C51.9767 48.5763 52 48.1808 52 47.7795V5.9915C52 5.35174 52 4.71779 52 4.07803ZM4.7275 5.0493C5.41961 4.20017 6.66423 3.85702 7.69367 4.22925C8.76963 4.6131 9.47918 5.59019 9.53734 6.72431C9.53734 6.75339 9.53734 6.78247 9.54316 6.81155C9.54316 6.84645 9.54316 6.88134 9.53734 6.91042V6.91624C9.46755 8.1376 8.59515 9.26009 7.35634 9.48692C6.22222 9.69629 5.06483 9.21356 4.45997 8.21321C3.8551 7.21286 4.0005 5.93915 4.7275 5.0493ZM9.53734 45.2961C9.53734 45.3019 9.53734 45.3019 9.53734 45.2961C9.46173 46.5232 8.59515 47.6399 7.35634 47.8726C6.22222 48.0819 5.06483 47.5992 4.45997 46.5989C3.8551 45.5985 3.99469 44.3248 4.72169 43.4349C5.41379 42.5858 6.65842 42.2427 7.68785 42.6149C8.76381 42.9987 9.47337 43.9758 9.53153 45.11C9.53153 45.139 9.53734 45.1681 9.53734 45.1972C9.54316 45.2321 9.54316 45.267 9.53734 45.2961ZM42.2698 38.5437C42.264 38.5437 42.264 38.5495 42.2698 38.5437C42.2407 38.5786 42.1186 38.7356 42.0953 38.7647C42.0081 38.8752 41.9209 38.9799 41.8336 39.0904C41.5021 39.4917 41.1531 39.8756 40.7926 40.2536C40.4203 40.6374 40.0365 41.0039 39.641 41.3586C39.4491 41.5273 39.2571 41.696 39.0652 41.853C38.9663 41.9344 38.8675 42.0158 38.7686 42.0914C38.7221 42.1322 38.6697 42.1729 38.6174 42.2078C38.6057 42.2194 38.5883 42.231 38.5767 42.2427C38.5767 42.2427 38.5708 42.2485 38.565 42.2543C38.565 42.2543 38.5592 42.2543 38.5592 42.2601C38.5592 42.2601 38.5592 42.2601 38.5534 42.2659C38.5476 42.2717 38.5418 42.2776 38.5359 42.2834C38.5359 42.2834 38.5359 42.2834 38.5301 42.2892C37.6984 42.9173 36.826 43.4931 35.9071 43.9991C35.436 44.2608 34.9533 44.4993 34.4647 44.7261C34.3484 44.7784 34.2321 44.8308 34.1158 44.8831C34.1041 44.889 34.0576 44.9064 34.0169 44.9238C34.0111 44.9238 34.0111 44.9238 34.0053 44.9297C33.9995 44.9355 33.9995 44.9297 33.9995 44.9355C33.9995 44.9355 33.9995 44.9355 33.9936 44.9355H33.9878C33.982 44.9355 33.982 44.9355 33.9762 44.9413C33.9762 44.9413 33.9762 44.9413 33.9704 44.9413C33.9471 44.9529 33.918 44.9646 33.8948 44.9704C33.6331 45.0809 33.3655 45.1798 33.098 45.2786C32.0802 45.6508 31.0333 45.9417 29.9748 46.151C29.7131 46.2034 29.4572 46.2499 29.1954 46.2906C29.0617 46.3139 28.9337 46.3313 28.8 46.3488H28.7941C28.8 46.3488 28.8 46.3488 28.8058 46.3488H28.8116C28.8 46.3488 28.7883 46.3488 28.7825 46.3546H28.7767C28.7709 46.3546 28.7651 46.3546 28.7651 46.3546H28.7592C28.6778 46.3662 28.6022 46.372 28.5208 46.3837C27.9624 46.4476 27.3983 46.4942 26.8283 46.5116C25.6942 46.5523 24.5543 46.5058 23.426 46.372C23.3736 46.3662 23.3213 46.3604 23.2689 46.3546C23.2573 46.3546 23.2457 46.3546 23.2399 46.3488C23.2573 46.3546 23.2689 46.3546 23.2689 46.3546C23.2631 46.3546 23.1061 46.3313 23.2224 46.3488C23.2108 46.3488 23.1991 46.343 23.1817 46.343C23.0479 46.3255 22.92 46.3022 22.7862 46.2848C22.5129 46.2383 22.2395 46.1917 21.9661 46.1336C21.4427 46.0289 20.9193 45.9009 20.4016 45.7555C18.3079 45.1623 16.5805 44.3771 14.7078 43.1441C14.2832 42.865 13.8703 42.5742 13.469 42.2659C13.469 42.2659 13.4631 42.2601 13.4573 42.2601C13.4573 42.2601 13.4631 42.2601 13.4631 42.2659C13.4282 42.2369 13.2828 42.1263 13.2538 42.0973C13.1549 42.0158 13.056 41.9402 12.9572 41.8588C12.742 41.6785 12.5326 41.4982 12.3232 41.3121C11.5322 40.5967 10.7936 39.829 10.1131 39.009C10.0317 38.9101 9.95028 38.8112 9.87467 38.7123C9.83977 38.6716 9.81069 38.6309 9.78161 38.5902C9.7758 38.5844 9.7758 38.5786 9.76998 38.5786L9.76417 38.5728C9.76417 38.5669 9.75835 38.5611 9.75253 38.5611C9.75253 38.5611 9.75253 38.5611 9.75253 38.5553C9.75253 38.5553 9.75253 38.5553 9.75253 38.5495C9.74672 38.5437 9.74672 38.5379 9.7409 38.5379C9.74672 38.5437 9.74672 38.5495 9.75835 38.5553C9.75253 38.5495 9.74672 38.5437 9.7409 38.5321C9.57805 38.3169 9.42102 38.1075 9.2698 37.8865C8.96737 37.4619 8.68239 37.0199 8.41485 36.5721C8.13568 36.1126 7.87978 35.6415 7.64132 35.1588C7.525 34.9319 7.4145 34.6993 7.30981 34.4667C7.25747 34.3503 7.20512 34.234 7.15278 34.1119L7.11207 34.0188C7.11207 34.0188 7.11207 34.0188 7.11207 34.013C7.11207 34.013 7.11207 34.0072 7.10625 34.0072V34.0014C7.10625 34.0014 7.10625 34.0014 7.10625 33.9956V33.9898V33.9839C7.08299 33.9316 7.04809 33.8444 7.04227 33.8269C6.64097 32.8382 6.31527 31.8262 6.06519 30.7851C5.93723 30.2442 5.82673 29.7034 5.73949 29.1567C5.72204 29.052 5.70459 28.9473 5.69296 28.8368C5.69296 28.8251 5.67551 28.6914 5.6697 28.6797C5.66388 28.6274 5.65807 28.575 5.65225 28.5227C5.61735 28.2319 5.58827 27.9353 5.56501 27.6445C5.47777 26.522 5.48358 25.3937 5.57664 24.2712C5.59991 24.0037 5.62317 23.7361 5.65806 23.4686C5.66388 23.4046 5.67551 23.3348 5.68133 23.2709C5.68133 23.265 5.68133 23.265 5.68133 23.2592C5.68133 23.2592 5.68133 23.2592 5.68133 23.2534C5.68133 23.2534 5.68133 23.2534 5.68133 23.2476C5.68133 23.2476 5.68133 23.2418 5.68133 23.236C5.68133 23.2243 5.68133 23.2127 5.68714 23.2011V23.1952C5.68714 23.2011 5.68714 23.2011 5.68714 23.2069C5.68714 23.2127 5.68714 23.2127 5.68714 23.2185V23.2243V23.2301C5.68714 23.2301 5.68714 23.2243 5.68714 23.2185C5.71041 23.0731 5.72786 22.9277 5.75112 22.7881C5.83836 22.2414 5.94887 21.7005 6.08263 21.1596C6.33854 20.1011 6.6875 19.0659 7.10043 18.0539C7.10043 18.0539 7.10043 18.0481 7.10625 18.0423V18.0364C7.10625 18.0364 7.10625 18.0364 7.10625 18.0306C7.10625 18.0248 7.10625 18.0248 7.11207 18.019C7.11207 18.019 7.11207 18.0132 7.11788 18.0074C7.11788 18.0074 7.11788 18.0015 7.1237 18.0015V17.9957C7.1237 17.9899 7.12951 17.9899 7.12951 17.9841V17.9783C7.15278 17.9318 7.17023 17.8852 7.19349 17.8387C7.24583 17.7224 7.29818 17.6061 7.35052 17.4897C7.46103 17.2455 7.58316 17.0012 7.7053 16.7627C7.94376 16.2975 8.19966 15.838 8.4672 15.3902C8.74636 14.9307 9.03716 14.4887 9.34541 14.0525C9.47918 13.8664 9.61295 13.6803 9.75253 13.5C9.75253 13.5 9.75253 13.5 9.75835 13.4941L9.76417 13.4883C9.76417 13.4883 9.76416 13.4883 9.76998 13.4825C9.76998 13.4767 9.7758 13.4767 9.78161 13.4709C9.78743 13.4651 9.78743 13.4592 9.79325 13.4592L9.79906 13.4534C9.81069 13.436 9.82233 13.4244 9.82814 13.4127C9.86885 13.3662 9.90956 13.3138 9.94446 13.2615C10.0375 13.1452 10.1364 13.023 10.2353 12.9067C10.9099 12.0983 11.6486 11.3422 12.4337 10.6443C12.6256 10.4756 12.8176 10.3128 13.0095 10.1499C13.0967 10.0743 13.184 10.0045 13.277 9.93475C13.3352 9.88822 13.3934 9.84169 13.4573 9.79516C13.4631 9.78935 13.469 9.78353 13.4748 9.77772C13.469 9.77772 13.469 9.78353 13.469 9.78353C13.4864 9.7719 13.5097 9.75445 13.5155 9.74864C13.5155 9.74864 13.5155 9.74864 13.5213 9.74864C13.5213 9.74864 13.5213 9.74864 13.5155 9.75445C13.5097 9.76027 13.5039 9.76608 13.4922 9.7719C13.498 9.76608 13.5097 9.76027 13.5213 9.74864C13.9459 9.42876 14.3821 9.12051 14.8299 8.82389C15.7314 8.23647 16.6736 7.71885 17.6507 7.27683C17.767 7.22449 17.8833 7.17215 18.0054 7.1198C18.0054 7.1198 18.0054 7.1198 18.0113 7.1198C18.0171 7.1198 18.0171 7.1198 18.0229 7.11399C18.0229 7.11399 18.0287 7.11399 18.0345 7.10817H18.0403C18.0462 7.10817 18.0462 7.10235 18.052 7.10235C18.052 7.10235 18.0578 7.10235 18.0578 7.09654H18.0636H18.0694C18.0694 7.09654 18.0694 7.09654 18.0752 7.09654C18.1218 7.07909 18.1683 7.05582 18.2148 7.03838C18.4533 6.9395 18.6975 6.84645 18.936 6.75921C19.4478 6.5731 19.9713 6.40443 20.4947 6.25903C21.024 6.11363 21.559 5.98568 22.0999 5.87518C22.3616 5.82283 22.6175 5.7763 22.8793 5.73559C22.9839 5.71814 23.0886 5.7007 23.1991 5.68906C23.1991 5.68906 23.1991 5.68906 23.205 5.68906C23.205 5.68906 23.205 5.68906 23.2108 5.68906H23.2166H23.2224H23.2282C23.234 5.68906 23.234 5.68906 23.2399 5.68906C23.2399 5.68906 23.2457 5.68906 23.2515 5.68906C23.2573 5.68906 23.2631 5.68906 23.2747 5.68906C23.2922 5.68906 23.3155 5.68325 23.3271 5.68325C23.4201 5.67162 23.5132 5.65998 23.6063 5.64835C24.7113 5.52622 25.8222 5.4855 26.933 5.53203C27.4972 5.5553 28.0613 5.60182 28.6197 5.6658C28.6953 5.67743 28.7651 5.68325 28.8349 5.69488C28.8349 5.69488 28.8348 5.69488 28.8407 5.69488H28.8465H28.8523C28.8581 5.69488 28.8639 5.69488 28.8639 5.69488C28.9977 5.71233 29.1256 5.73559 29.2594 5.75304C29.5444 5.79957 29.8352 5.85191 30.1202 5.91007C31.1787 6.12526 32.2256 6.42188 33.2376 6.79992C33.4818 6.88716 33.7203 6.98603 33.9587 7.07909C33.9704 7.08491 33.9936 7.09654 34.0169 7.10235C34.0227 7.10235 34.0227 7.10235 34.0285 7.10817C34.0344 7.10817 34.0344 7.11399 34.0402 7.11399C34.0402 7.11399 34.0402 7.11399 34.046 7.11399H34.0518C34.0518 7.11399 34.0518 7.11399 34.0576 7.11399C34.0925 7.13143 34.1332 7.14307 34.1681 7.16051C34.2961 7.21867 34.424 7.27683 34.5578 7.33499C35.0463 7.56182 35.5233 7.80609 35.9944 8.06781C36.4596 8.32953 36.9191 8.6087 37.3669 8.8995C37.5821 9.03908 37.7915 9.18448 37.9951 9.32988C38.0997 9.40549 38.2044 9.47528 38.3033 9.55671C38.344 9.58579 38.3847 9.61487 38.4254 9.64976C38.4429 9.6614 38.5418 9.737 38.5825 9.76608L38.5883 9.7719C38.5883 9.7719 38.5883 9.7719 38.5941 9.77772C39.3967 10.4058 40.1528 11.0921 40.8623 11.8308C41.2288 12.2146 41.5835 12.6159 41.9267 13.023C42.0081 13.1219 42.0895 13.2208 42.1651 13.3197C42.2 13.3604 42.2349 13.4011 42.264 13.4476C42.264 13.4476 42.264 13.4418 42.2582 13.4418L42.264 13.4476C42.264 13.4476 42.264 13.4476 42.2698 13.4534C42.2756 13.4592 42.2756 13.4651 42.2815 13.4709C42.2873 13.4767 42.2931 13.4825 42.2931 13.4883C42.2931 13.4941 42.2989 13.4941 42.2989 13.4941C42.2989 13.4941 42.2989 13.5 42.3047 13.5C42.4734 13.721 42.642 13.9478 42.7991 14.1746C43.4098 15.0412 43.9506 15.9543 44.4276 16.9023C44.5381 17.1233 44.6428 17.3385 44.7416 17.5595C44.794 17.6759 44.8463 17.7922 44.8987 17.9085C44.9045 17.9201 44.9219 17.9667 44.9394 18.0074C44.9394 18.0132 44.9394 18.0132 44.9452 18.019V18.0248V18.0306C44.9452 18.0364 44.9452 18.0364 44.951 18.0423V18.0481C44.951 18.0481 44.951 18.0481 44.951 18.0539C44.9743 18.1004 44.9917 18.1528 45.015 18.1993C45.2185 18.7053 45.4046 19.2113 45.5675 19.7289C45.899 20.7642 46.1491 21.8285 46.3178 22.9044L46.3468 23.1022C46.3468 23.1022 46.3527 23.1545 46.3585 23.1952C46.3585 23.2011 46.3585 23.2127 46.3643 23.2243C46.3643 23.2418 46.3701 23.2534 46.3701 23.2592C46.3701 23.2592 46.3701 23.2592 46.3701 23.265C46.3759 23.3057 46.3817 23.3523 46.3817 23.3523C46.3876 23.4163 46.3992 23.486 46.405 23.55C46.4341 23.8176 46.4632 24.0851 46.4806 24.3526C46.5213 24.9051 46.5446 25.4635 46.5446 26.0218C46.5446 26.5918 46.5213 27.1618 46.4748 27.7259C46.4515 27.9934 46.4283 28.261 46.3992 28.5285C46.3876 28.6099 46.3817 28.6856 46.3701 28.767V28.7728C46.3701 28.7728 46.3701 28.7728 46.3701 28.7786C46.3701 28.7844 46.3701 28.7902 46.3701 28.7961C46.3701 28.8019 46.3701 28.8019 46.3701 28.8077V28.8135V28.8193C46.3701 28.831 46.3701 28.8426 46.3643 28.8484C46.3643 28.8484 46.3643 28.8484 46.3643 28.8542C46.3468 28.988 46.3236 29.1159 46.3061 29.2497C46.1316 30.3257 45.8757 31.3842 45.5384 32.4194C45.3756 32.9254 45.1895 33.4198 44.9917 33.9141C44.9859 33.9258 44.9568 33.9956 44.9394 34.0363C44.9394 34.0421 44.9336 34.0479 44.9336 34.0537C44.9219 34.077 44.9103 34.1061 44.9045 34.1293C44.8521 34.2457 44.7998 34.362 44.7474 34.4841C44.6311 34.74 44.509 34.9959 44.381 35.246C43.8983 36.1998 43.34 37.1188 42.7177 37.9912C42.5548 38.1656 42.4152 38.3518 42.2698 38.5437ZM47.923 45.2961C47.923 45.3019 47.923 45.3019 47.923 45.2961C47.8474 46.5232 46.9808 47.6399 45.742 47.8726C44.6079 48.0819 43.4505 47.5992 42.8456 46.5989C42.2407 45.5985 42.3803 44.3248 43.1073 43.4349C43.7994 42.5858 45.0441 42.2427 46.0735 42.6149C47.1494 42.9987 47.859 43.9758 47.9172 45.11C47.9172 45.139 47.923 45.1681 47.923 45.1972C47.9288 45.2321 47.9288 45.267 47.923 45.2961ZM47.923 6.91042C47.923 6.91624 47.923 6.91624 47.923 6.91042C47.8474 8.1376 46.9808 9.25428 45.742 9.48692C44.6079 9.69629 43.4505 9.21356 42.8456 8.21321C42.2407 7.21286 42.3803 5.93915 43.1073 5.0493C43.7994 4.20017 45.0441 3.85702 46.0735 4.22925C47.1494 4.6131 47.859 5.59019 47.9172 6.72431C47.9172 6.75339 47.923 6.78247 47.923 6.81155C47.9288 6.84645 47.9288 6.88134 47.923 6.91042Z" fill="#052B98"/>
<path d="M43.6718 30.0814C43.5846 29.4882 43.4915 28.895 43.4043 28.3017C43.1309 26.4871 42.8518 24.6784 42.5784 22.8638C42.5493 22.6718 42.5203 22.4799 42.4912 22.288C42.4039 21.7122 42.1422 21.1946 41.7758 20.7467C40.9267 19.7231 39.4145 19.3451 38.1815 19.8394C36.8206 20.392 35.4654 20.9561 34.1045 21.5086C32.8599 22.0204 31.6152 22.5264 30.3706 23.0382C29.7658 22.1542 28.8992 21.4505 27.8523 21.0375C28.114 19.9441 28.3815 18.8449 28.6433 17.7515C28.8468 16.8965 29.0853 16.03 29.4401 15.2913C29.8239 14.4887 30.3241 13.7675 30.8184 13.0289C31.2372 12.4008 31.6501 11.7785 32.0689 11.1561C32.0805 11.1387 32.0922 11.1212 32.1038 11.1096C32.1154 11.0922 32.1271 11.0689 32.1387 11.0515C32.5633 10.3012 32.4237 9.31828 31.7606 8.7425C31.2721 8.31793 30.7079 8.23651 30.0856 8.32956C29.4924 8.4168 28.8992 8.50986 28.3059 8.5971C26.4913 8.87045 24.6826 9.14962 22.868 9.42297C22.676 9.45205 22.4841 9.48113 22.2922 9.51021C21.7164 9.60327 21.193 9.85917 20.7509 10.2314C19.7273 11.0805 19.3493 12.5927 19.8436 13.8257C20.3962 15.1866 20.9603 16.5418 21.5128 17.9027C22.0188 19.1415 22.5248 20.3803 23.0366 21.6191C22.6179 21.8983 22.2398 22.2415 21.92 22.6369C21.5477 23.0964 21.2628 23.614 21.0592 24.1549C20.2682 23.963 19.4772 23.7711 18.6804 23.5849C18.2035 23.4686 17.7208 23.3523 17.2439 23.2418C16.1912 22.9859 15.313 22.6428 14.394 22.0844C13.3588 21.4621 12.3701 20.7467 11.3639 20.0779C11.2127 19.979 11.0731 19.8802 10.9103 19.8045C10.2705 19.5137 9.54932 19.5894 8.99098 20.0197C8.40938 20.4734 8.21163 21.1422 8.31632 21.8518C8.32795 21.9158 8.33377 21.9739 8.3454 22.0379C8.71181 24.4399 9.0724 26.8419 9.43881 29.2497C9.49115 29.5987 9.53187 29.9535 9.65982 30.2908C10.1135 31.454 11.1429 32.2392 12.3817 32.3671C13.3762 32.4718 14.2952 31.9716 15.185 31.6052C17.3253 30.727 19.4714 29.8488 21.6175 28.9706C22.2515 29.8953 23.1471 30.5758 24.1533 30.948C23.8916 32.0472 23.6241 33.1465 23.3565 34.2515C23.153 35.1065 22.9145 35.973 22.5597 36.7117C22.1759 37.5143 21.6757 38.2355 21.1813 38.9741C20.7626 39.6022 20.338 40.2304 19.9251 40.8585C19.5587 41.4168 19.5296 42.0973 19.8146 42.6964C20.1926 43.4873 21.0243 43.8014 21.8502 43.6851C23.0657 43.5106 24.2754 43.3187 25.4852 43.1325C26.8926 42.9174 28.2943 42.708 29.7018 42.4928C29.7192 42.4928 29.7367 42.487 29.7541 42.487C29.7658 42.487 29.7774 42.4812 29.789 42.4812C31.5803 42.1555 32.7319 40.2711 32.2725 38.5205C32.1445 38.0319 31.9002 37.5608 31.7083 37.0955C30.9231 35.1879 30.1438 33.2744 29.3586 31.3668C29.2249 31.0411 29.0911 30.7154 28.9573 30.3897C29.8588 29.7732 30.5451 28.8775 30.9348 27.8539C32.034 28.1156 33.139 28.3832 34.2383 28.6507C35.0932 28.8543 35.9598 29.0927 36.6984 29.4475C37.501 29.8313 38.2222 30.3315 38.9609 30.8259C39.5832 31.2446 40.2055 31.6576 40.8336 32.0705C40.8336 32.0705 40.8336 32.0705 40.8394 32.0763C40.8569 32.088 40.8743 32.0996 40.886 32.1112C40.9034 32.1228 40.9209 32.1345 40.9441 32.1461C41.6944 32.5707 42.6773 32.4311 43.2531 31.7681C43.6835 31.2679 43.7649 30.7037 43.6718 30.0814Z" fill="#052B98"/>
</svg>
