<svg width="53" height="78" viewBox="0 0 53 78" fill="none" xmlns="http://www.w3.org/2000/svg">
<path d="M26.5 0.00537109C11.8768 0.00537109 0 11.8487 0 26.4844C0 37.726 6.98636 47.3066 16.8636 51.1581C17.1503 53.9239 15.8663 57.8356 19.2727 61.6775V74.6282C19.2727 75.9521 20.3327 77.0353 21.6818 77.0353C23.0068 77.0353 24.0909 75.9521 24.0909 74.6282V64.6624C25.9507 65.127 27.1167 65.0957 28.9091 64.6624V69.8138C28.9091 71.1377 29.9691 72.221 31.3182 72.221C32.6432 72.221 33.7273 71.1377 33.7273 69.8138V61.6775C37.1602 57.7417 35.8545 53.8084 36.1364 51.1581C46.0136 47.3066 53 37.726 53 26.4844C53 11.8487 41.1473 0.00537109 26.5 0.00537109ZM26.5 48.1491C14.6135 48.1491 4.81818 38.5011 4.81818 26.4844C4.81818 14.5448 14.5509 4.81974 26.5 4.81974C38.4491 4.81974 48.1818 14.5448 48.1818 26.4844C48.1818 38.5035 38.384 48.1491 26.5 48.1491Z" fill="#052B98"/>
<path d="M35.2038 26.0222L31.0842 25.1099C30.7951 24.1422 30.2169 23.3093 29.4388 22.7027L31.3083 9.63171C25.4445 9.63171 20.9419 14.1332 21.7707 19.1642L23.0282 23.1457C22.3368 23.8606 21.8815 24.7922 21.7394 25.8273L9.51562 30.7307C12.4475 35.8051 18.6003 37.4516 22.5464 34.2187L25.3578 31.152C26.3817 31.3999 27.3694 31.3373 28.3499 30.9281L38.6969 39.0451C41.6264 33.9684 39.9786 27.8204 35.2038 26.0222Z" fill="#052B98"/>
</svg>
