<svg width="77" height="67" viewBox="0 0 77 67" fill="none" xmlns="http://www.w3.org/2000/svg">
<path d="M52.4858 34.4684C52.618 33.8282 52.6856 33.1771 52.6856 32.525C52.6856 31.309 52.4525 30.1058 52.0056 28.9853C51.7489 29.2646 51.4803 29.5224 51.2053 29.7684C51.1236 29.8404 51.0398 29.907 50.9582 29.9768C50.7476 30.1552 50.5338 30.326 50.3158 30.4861C50.2169 30.5591 50.117 30.6311 50.0171 30.7009C49.7958 30.8545 49.5734 30.9996 49.3478 31.1371C49.264 31.1886 49.1802 31.2434 49.0965 31.2918C48.7914 31.4701 48.4841 31.6366 48.1779 31.787C48.1264 31.8117 48.077 31.8321 48.0265 31.8568C47.7665 31.9815 47.5097 32.0975 47.2541 32.2038C47.1531 32.2457 47.0553 32.2844 46.9575 32.3231C46.7491 32.4058 46.5429 32.4832 46.342 32.5541C46.2442 32.5884 46.1486 32.6228 46.0541 32.655C46.0047 32.6712 45.9542 32.6905 45.9058 32.7066C45.8951 32.8602 45.8725 33.0106 45.8381 33.1589C46.0208 33.247 46.2088 33.3361 46.4075 33.4221C46.4193 33.4274 46.4311 33.4317 46.4419 33.4371C46.6439 33.5241 46.8523 33.609 47.0682 33.6917C47.1423 33.7207 47.2218 33.7465 47.2981 33.7755C47.4549 33.8325 47.615 33.8883 47.7783 33.942C47.8739 33.9732 47.9717 34.0022 48.0694 34.0312C48.2231 34.0763 48.3767 34.1204 48.5346 34.1623C48.641 34.1891 48.7473 34.216 48.8558 34.2407C49.0137 34.2772 49.1749 34.3105 49.3371 34.3417C49.4467 34.3632 49.5552 34.3846 49.6669 34.4029C49.8442 34.4319 50.0257 34.4534 50.2062 34.4727C50.305 34.4845 50.4028 34.4985 50.5016 34.5071C50.7831 34.5297 51.0678 34.5458 51.3568 34.5458C51.7016 34.5458 52.0421 34.5211 52.3773 34.4824C52.4128 34.4792 52.4493 34.4727 52.4858 34.4684ZM47.2637 39.3618C47.4485 39.5627 47.6419 39.7582 47.8471 39.9452C47.9373 40.0279 48.0329 40.1052 48.1274 40.1858C48.2381 40.2793 48.3563 40.3641 48.4712 40.4522C50.0386 39.3962 51.2418 37.9244 51.9551 36.198C51.7553 36.2088 51.5544 36.2152 51.3535 36.2152C51.0184 36.2152 50.6885 36.197 50.363 36.1701C50.2588 36.1615 50.1611 36.1465 50.0579 36.1357C49.8366 36.111 49.6186 36.0852 49.4026 36.0509C49.2845 36.0304 49.1695 36.0079 49.0535 35.9853C48.859 35.9488 48.6689 35.9101 48.4798 35.8661C48.3595 35.8392 48.2413 35.8081 48.1231 35.778C47.9448 35.7318 47.7708 35.6835 47.5989 35.6308C47.4818 35.5964 47.3669 35.561 47.2541 35.5234C47.0865 35.4686 46.9232 35.4127 46.762 35.3547C46.6535 35.316 46.5472 35.2784 46.443 35.2376C46.2775 35.1742 46.1185 35.1098 45.9628 35.0432C45.8736 35.0067 45.7823 34.9701 45.6963 34.9315C45.5083 34.8498 45.3311 34.7671 45.1581 34.6833C45.1119 34.6607 45.0614 34.6392 45.0163 34.6178C45.0056 34.6124 44.9948 34.6059 44.9841 34.6016C44.8724 34.7048 44.7499 34.7961 44.6199 34.8788C44.7037 35.1087 44.8015 35.3547 44.9078 35.6083C44.9368 35.6759 44.9701 35.749 45.0002 35.8177C45.0829 36.0057 45.171 36.198 45.2677 36.3936C45.3139 36.4902 45.3644 36.588 45.4149 36.6847C45.5094 36.8652 45.6104 37.0478 45.7146 37.2315C45.7737 37.3346 45.8306 37.4345 45.894 37.5377C46.0165 37.7396 46.1508 37.9416 46.2904 38.1414C46.3452 38.2209 46.3946 38.3004 46.4505 38.3788C46.6514 38.6528 46.8652 38.9224 47.0951 39.1835C47.1488 39.2447 47.21 39.3017 47.2637 39.3618ZM43.1932 33.8013C43.898 33.8013 44.4695 33.2298 44.4695 32.525C44.4695 31.8203 43.898 31.2488 43.1932 31.2488C42.4896 31.2488 41.917 31.8203 41.917 32.525C41.917 33.2298 42.4896 33.8013 43.1932 33.8013ZM74.5109 19.8119C74.8965 19.6551 75.1705 19.2791 75.1705 18.8365C75.1705 18.2542 74.6978 17.7826 74.1155 17.7826C73.9501 17.7826 73.7986 17.8277 73.66 17.8954C73.471 17.5033 73.2862 17.1101 73.0842 16.7266C72.879 16.3517 72.6803 15.9714 72.4601 15.6072C72.4278 15.5513 72.3956 15.4954 72.3634 15.4385C66.5665 5.96544 55.9687 0.443604 43.117 0.443604H1.71931C-0.799897 5.1651 -0.676354 16.9984 2.92788 21.1859H43.1922C49.4542 21.1859 54.5323 26.263 54.5323 32.525C54.5323 38.7871 49.4542 43.8642 43.1922 43.8642C39.5965 43.8642 36.3984 42.1861 34.3218 39.5756L34.3003 39.6089C34.2197 39.48 34.1391 39.3511 34.0575 39.2232C32.6781 37.3454 31.8531 35.0346 31.8531 32.5261C31.8531 29.068 33.4054 25.9783 35.8451 23.8985L35.8193 23.8824C35.872 23.848 35.9235 23.8137 35.9762 23.7782C36.3382 23.4795 36.725 23.211 37.1235 22.9585H11.5211C10.6509 24.7042 10.0321 26.5638 9.63466 28.4782C9.47674 29.806 9.38542 31.1553 9.38542 32.5261C9.38542 37.0252 10.2717 41.317 11.8681 45.2425C11.4878 45.4015 11.2192 45.7775 11.2192 46.2147C11.2192 46.797 11.6908 47.2686 12.2731 47.2686C12.431 47.2686 12.5782 47.2288 12.7125 47.1665C18.1699 58.5067 29.7679 66.3339 43.1943 66.3339C47.6945 66.3339 51.9831 65.4412 55.9096 63.8448C56.0664 64.2283 56.4424 64.5012 56.884 64.5012C57.4652 64.5012 57.9378 64.0285 57.9378 63.4463C57.9378 63.283 57.8938 63.1336 57.8272 62.9951C62.6969 60.6499 66.9264 57.1842 70.1589 52.914C70.2298 52.8173 70.305 52.7227 70.3749 52.626C70.5081 52.4466 70.6338 52.2619 70.7616 52.0803C73.2368 48.5996 75.0652 44.6323 76.0804 40.3469C76.1352 40.1192 76.19 39.8925 76.2372 39.6626C76.2738 39.5036 76.306 39.3436 76.3404 39.1835C76.7712 37.0306 77 34.8047 77 32.525C77.0021 28.0249 76.1083 23.7385 74.5109 19.8119ZM41.7934 37.2841C41.7354 37.4807 41.6828 37.6816 41.6345 37.8868C41.6087 37.9942 41.5797 38.1006 41.5571 38.2113C41.4991 38.4766 41.4507 38.7473 41.411 39.0202C41.4035 39.0739 41.3927 39.1244 41.3863 39.177C41.3433 39.5015 41.3175 39.8323 41.3036 40.1665C41.2993 40.2674 41.3046 40.3706 41.3036 40.4726C41.3014 40.71 41.3046 40.9475 41.3218 41.1892C41.3294 41.3149 41.3444 41.4416 41.3573 41.5684C41.3713 41.6919 41.3927 41.8155 41.411 41.9401C43.2856 42.2764 45.1785 42.0518 46.8748 41.3278C46.5891 41.0785 46.3248 40.8132 46.0713 40.5446C45.995 40.464 45.9252 40.3802 45.8521 40.2975C45.6706 40.0934 45.4965 39.885 45.3321 39.6744C45.2559 39.5745 45.1807 39.4757 45.1076 39.3769C44.9497 39.1609 44.8015 38.9439 44.6596 38.7237C44.6049 38.6388 44.5479 38.555 44.4953 38.4712C44.3094 38.1694 44.1375 37.8675 43.9796 37.5667C43.9528 37.513 43.9281 37.4603 43.9023 37.4088C43.7734 37.1552 43.653 36.9028 43.5413 36.6546C43.4962 36.5547 43.4554 36.4569 43.4145 36.3592C43.3265 36.1518 43.2448 35.9477 43.1685 35.7468C43.132 35.6534 43.0966 35.561 43.0622 35.4697C43.0439 35.4203 43.0235 35.3687 43.0063 35.3203C42.8538 35.3139 42.7023 35.2956 42.5519 35.2623C42.5454 35.2784 42.5379 35.2913 42.5304 35.3064C42.4939 35.388 42.4595 35.475 42.4219 35.5588C42.3489 35.7318 42.2737 35.9091 42.2027 36.0928C42.163 36.1948 42.1265 36.299 42.0878 36.4043C42.0223 36.5826 41.96 36.7642 41.9009 36.9511C41.8611 37.0575 41.8268 37.1703 41.7934 37.2841ZM47.0048 23.7857C47.0166 24.1649 47.0037 24.5356 46.978 24.9041C46.9704 25.0136 46.9565 25.1211 46.9468 25.2306C46.9199 25.5035 46.8866 25.7732 46.8437 26.0396C46.8233 26.162 46.8028 26.2824 46.7781 26.4016C46.7266 26.667 46.6675 26.9269 46.603 27.1837C46.5794 27.2782 46.559 27.3749 46.5332 27.4673C46.4387 27.8089 46.3334 28.143 46.2206 28.4664C46.2023 28.5169 46.183 28.5642 46.1636 28.6136C46.0637 28.8875 45.9595 29.1529 45.85 29.4107C45.8091 29.5074 45.7672 29.6008 45.7253 29.6954C45.6308 29.9059 45.5352 30.109 45.4385 30.3066C45.3955 30.3926 45.3547 30.4775 45.3117 30.5602C45.2881 30.6085 45.2634 30.6601 45.2387 30.7074C45.3386 30.8234 45.4278 30.948 45.5083 31.0791C45.5287 31.0726 45.547 31.0672 45.5674 31.0608C45.634 31.0382 45.7039 31.0114 45.7694 30.9877C45.966 30.919 46.1626 30.8459 46.3656 30.7654C46.458 30.7288 46.5504 30.6891 46.6439 30.6493C46.8276 30.572 47.0145 30.4893 47.2003 30.4012C47.2992 30.355 47.398 30.3077 47.4947 30.2594C47.6881 30.1638 47.8793 30.0596 48.0716 29.9521C48.1607 29.9027 48.251 29.8544 48.3391 29.8017C48.5851 29.6556 48.8279 29.4988 49.0685 29.3323C49.0997 29.3097 49.133 29.2914 49.1652 29.2689C49.4338 29.0777 49.697 28.8703 49.9516 28.6501C50.0225 28.5889 50.0891 28.5212 50.1589 28.4578C50.3405 28.2934 50.5167 28.1226 50.6875 27.9421C50.7713 27.853 50.8518 27.7584 50.9335 27.665C51.0162 27.5704 51.0925 27.4673 51.172 27.3695C50.1632 25.7989 48.6979 24.5442 47.0048 23.7857ZM39.7093 39.1889C39.7244 39.0642 39.7383 38.9407 39.7577 38.8172C39.7953 38.5518 39.8415 38.2918 39.893 38.0351C39.9134 37.9373 39.9296 37.8374 39.951 37.7418C40.0295 37.3948 40.1165 37.0553 40.2153 36.7277C40.2293 36.6825 40.2443 36.6396 40.2594 36.5923C40.3475 36.3076 40.4409 36.0326 40.5398 35.764C40.5752 35.6673 40.6107 35.576 40.6483 35.4815C40.7331 35.2634 40.8191 35.0528 40.9093 34.8466C40.9448 34.7617 40.9813 34.6779 41.02 34.5941C41.0425 34.5426 41.0651 34.4878 41.0876 34.4373C40.9845 34.3256 40.8889 34.2074 40.804 34.0817L40.7997 34.0838C40.5763 34.1709 40.3367 34.2729 40.0918 34.3825C40.0123 34.4179 39.9306 34.4588 39.8479 34.4964C39.6717 34.5791 39.4913 34.6672 39.3086 34.7617C39.2109 34.8133 39.112 34.867 39.0132 34.9207C38.8349 35.0185 38.6555 35.1227 38.475 35.2323C38.3761 35.2935 38.2762 35.3526 38.1774 35.416C37.9722 35.5481 37.7692 35.691 37.5661 35.8392C37.4941 35.8919 37.4211 35.9391 37.3491 35.995C37.0784 36.2013 36.812 36.4226 36.5541 36.6621C36.4983 36.7148 36.4467 36.7728 36.3909 36.8265C36.1921 37.0177 35.9987 37.2175 35.8129 37.4302C35.7334 37.5226 35.6571 37.6215 35.5798 37.7182C35.4906 37.8299 35.4079 37.9491 35.323 38.0662C36.4177 39.6068 37.9174 40.7734 39.6588 41.4459C39.6288 41.0689 39.6223 40.6961 39.6298 40.3276C39.632 40.2148 39.6427 40.1052 39.647 39.9935C39.6599 39.7238 39.6803 39.4542 39.7093 39.1889ZM36.3146 34.6822C36.5316 34.5157 36.7486 34.3578 36.9699 34.2095C37.0494 34.1547 37.1278 34.0978 37.2084 34.0462C37.506 33.8539 37.8057 33.6724 38.1043 33.5069C38.1538 33.4801 38.2021 33.4565 38.2515 33.4307C38.5051 33.2932 38.7564 33.1653 39.0067 33.0471C39.1045 33.001 39.2001 32.958 39.2968 32.9139C39.5031 32.8205 39.7061 32.7324 39.907 32.6507C39.9983 32.6131 40.0886 32.5755 40.1788 32.5401C40.2282 32.5208 40.2787 32.4993 40.327 32.481C40.3303 32.3263 40.3453 32.1738 40.3732 32.0234C39.0293 31.4529 37.2181 30.8954 35.2725 30.8954C34.7246 30.8954 34.1875 30.9405 33.6697 31.0296C33.5923 31.5206 33.5526 32.0212 33.5526 32.5283C33.5526 33.9066 33.8469 35.257 34.4131 36.4945C34.657 36.2023 34.9148 35.9305 35.1791 35.6706C35.2553 35.5954 35.3338 35.5266 35.4111 35.4546C35.6152 35.2645 35.8215 35.0819 36.0342 34.9089C36.1266 34.8305 36.22 34.7542 36.3146 34.6822ZM45.2784 23.1798C44.7069 23.0477 44.1257 22.9703 43.5435 22.9413V22.9585H42.3306C41.1542 23.0455 39.9994 23.3388 38.9423 23.8523C39.9328 24.6366 40.7363 25.5948 41.3949 26.5628C41.4035 26.5735 41.411 26.5853 41.4174 26.5961C41.6269 26.9044 41.8257 27.2127 42.0051 27.5178C42.0395 27.5769 42.0695 27.6349 42.1039 27.694C42.5025 28.388 42.8334 29.0562 43.0966 29.6298H43.118C43.3587 29.6298 43.5929 29.7115 43.8206 29.7706C44.4416 28.562 45.0249 27.0601 45.2441 25.4143C45.2623 25.2768 45.286 25.1415 45.2999 25.0018C45.3117 24.8772 45.3117 24.7494 45.3193 24.6237C45.3311 24.3991 45.3397 24.1735 45.3354 23.9447C45.3343 23.833 45.3257 23.7202 45.3193 23.6074C45.3107 23.4656 45.2924 23.3227 45.2784 23.1798ZM38.5448 25.7925C38.3686 25.626 38.1892 25.4627 37.9991 25.308C37.9035 25.2296 37.8025 25.1554 37.7026 25.0813C37.6016 25.0061 37.4941 24.9374 37.3889 24.8654C35.8698 26.0031 34.7407 27.5425 34.1144 29.285C34.4947 29.2463 34.8804 29.2259 35.2704 29.2259C37.5532 29.2259 39.6481 29.8898 41.1532 30.543C41.2606 30.4356 41.3777 30.3389 41.5012 30.2497C41.4926 30.2271 41.4851 30.2067 41.4765 30.1853C41.4518 30.1251 41.4217 30.0639 41.396 30.0037C41.3122 29.8103 41.2241 29.6159 41.1274 29.4171C41.0833 29.3269 41.0361 29.2367 40.991 29.1453C40.9007 28.9692 40.8062 28.7919 40.7073 28.6146C40.6515 28.5169 40.5956 28.4191 40.5387 28.3214C40.4313 28.142 40.3174 27.9626 40.2003 27.7842C40.1401 27.694 40.0832 27.6037 40.0209 27.5135C39.864 27.289 39.6964 27.0666 39.5213 26.8485C39.4902 26.8098 39.4633 26.769 39.4311 26.7303C39.2227 26.4779 38.9981 26.2319 38.7607 25.9934C38.6909 25.9236 38.6157 25.8591 38.5448 25.7925Z" fill="white"/>
</svg>
