<svg width="69" height="68" viewBox="0 0 69 68" fill="none" xmlns="http://www.w3.org/2000/svg">
<path fill-rule="evenodd" clip-rule="evenodd" d="M52.0752 55.1211C50.0749 59.9122 47.2451 64.1675 43.6428 66.8896V66.8866C48.916 65.5421 53.7877 62.9369 57.8398 59.2987C56.0671 57.7117 54.1353 56.3099 52.0752 55.1211ZM34.2975 0.625244C27.7577 1.28402 23.0059 7.84485 20.3075 14.3155C24.6584 16.4894 29.4344 17.6902 34.2975 17.825V0.625244ZM50.3657 14.3155C47.5988 7.59901 42.6999 1.20554 36.2377 0.649008V17.8042C41.1456 17.6904 45.9663 16.4985 50.3657 14.3155ZM54.0159 33.3036H36.2382V19.7421C41.3827 19.6163 46.4429 18.3736 51.0638 16.1009C52.9713 21.6286 53.9685 27.4286 54.0134 33.2737L54.0159 33.3036ZM52.7882 15.2201C54.8394 21.0203 55.9143 27.1196 55.9682 33.2737H69C68.7634 24.7279 65.2719 16.5945 59.2415 10.5371C57.2682 12.3217 55.1032 13.8819 52.7885 15.1904L52.7882 15.2201ZM43.6429 1.60723C48.9161 2.95172 53.7878 5.55686 57.8399 9.1951C56.0702 10.7881 54.1388 12.1865 52.0756 13.3723C50.1502 8.77287 47.3444 4.40416 43.6433 1.60385L43.6429 1.60723ZM18.5974 13.3726C16.5342 12.1868 14.6028 10.7884 12.8331 9.19541C16.8785 5.55118 21.7537 2.94904 27.0301 1.60753C23.29 4.4283 20.4992 8.81212 18.5977 13.376L18.5974 13.3726ZM19.1723 56.4772C18.5884 56.2616 18.0135 56.034 17.4385 55.7795C15.7976 56.8126 14.2464 57.9864 12.8031 59.2829C16.8516 62.9272 21.7268 65.5323 27.0055 66.8708C23.8553 64.4872 21.2027 60.8314 19.1723 56.4772ZM34.2669 58.8308V67.8679C28.6943 67.308 24.4149 62.424 21.7503 57.3513H21.7473C25.8048 58.555 30.0355 59.0731 34.267 58.8844L34.2669 58.8308ZM50.0507 54.944C47.4126 60.9838 42.7084 67.3173 36.2524 67.8769V58.678C41.0315 58.2199 45.6996 56.9442 50.0507 54.905V54.944ZM68.7483 38.4473C67.826 45.8226 64.4812 52.6826 59.2412 57.9559C57.3307 56.2221 55.2436 54.7009 53.0098 53.4103C59.4268 49.823 64.841 44.6757 68.7483 38.4473ZM55.2404 43.6217C60.0645 41.858 64.3941 38.9684 67.8736 35.1894H55.9679C55.929 38.0131 55.6894 40.8309 55.2552 43.6217H55.2404ZM36.2378 44.9782C41.8464 46.1879 47.6736 45.9513 53.1714 44.2954C53.6925 41.286 53.974 38.2407 54.0129 35.1893H36.2376L36.2378 44.9782ZM27.9342 35.2135C27.8145 35.4231 27.6617 35.6118 27.4821 35.7705L23.9247 39.0464C26.9701 41.5587 30.5005 43.4182 34.2972 44.5022V35.2136L27.9342 35.2135ZM16.8726 29.3175C17.2139 24.8109 18.1422 20.3669 19.6335 16.1002C24.209 18.355 29.2187 19.5977 34.321 19.7414V33.273H28.0956C27.8321 32.5603 27.2362 32.0243 26.4996 31.8387L16.8726 29.3175ZM2.7691 25.6463L14.9508 28.8263H14.9478C15.328 24.173 16.3162 19.5883 17.8853 15.1897C15.5676 13.8812 13.4026 12.321 11.4293 10.5364C7.26399 14.7226 4.27542 19.933 2.7691 25.6463ZM15.4084 54.8359C14.007 55.7792 12.6775 56.8212 11.4288 57.9561C10.1412 56.6595 8.96134 55.2582 7.89534 53.7699L10.1951 51.6529V51.6559C11.848 52.8477 13.5908 53.9137 15.4084 54.8359ZM10.7401 49.6316C10.3658 49.3501 9.84475 49.377 9.49741 49.6915L5.14349 53.6921V53.6951C5.04467 53.7909 4.89795 53.8238 4.76619 53.7789C4.63743 53.734 4.54161 53.6172 4.52364 53.4795L0.00804916 27.4788C-0.0189006 27.35 0.0230213 27.2212 0.115845 27.1344C0.211667 27.0446 0.343426 27.0146 0.46919 27.0476L26.0176 33.7102C26.1524 33.7431 26.2572 33.8479 26.2901 33.9797C26.3201 34.1144 26.2751 34.2552 26.1703 34.345L21.8404 38.3306C21.6308 38.5132 21.508 38.7797 21.508 39.0552C21.508 39.3337 21.6308 39.6002 21.8404 39.7799C33.7676 50.5119 52.6023 49.9608 65.053 40.4237C59.5283 47.7391 51.7606 53.0392 42.9358 55.5183C31.8772 58.7763 19.9298 56.5936 10.7401 49.6316Z" fill="white"/>
</svg>
