<svg width="77" height="80" viewBox="0 0 77 80" fill="none" xmlns="http://www.w3.org/2000/svg">
<path d="M11.1305 52.2926C10.9067 51.8302 10.3511 51.6363 9.88496 51.8563C9.42255 52.08 9.22491 52.6357 9.44866 53.1018C14.207 62.9613 23.4627 70.1917 34.2024 72.4446C34.2658 72.4596 34.3329 72.4633 34.3963 72.4633C34.8289 72.4633 35.2167 72.1612 35.3062 71.7212C35.4106 71.2178 35.0899 70.7218 34.5865 70.6175C24.4062 68.4844 15.6388 61.6304 11.1311 52.2894L11.1305 52.2926Z" fill="white"/>
<path d="M69.5419 56.2422C69.2585 56.671 69.3741 57.249 69.8066 57.5325C69.9633 57.6369 70.1423 57.6891 70.3213 57.6891C70.6233 57.6891 70.9216 57.5437 71.1006 57.2714C71.6898 56.3839 72.2454 55.4517 72.7526 54.512C75.5308 49.3547 77 43.5298 77 37.6569C77 32.3803 75.8478 27.279 73.5805 22.4982C73.3605 22.0321 72.8049 21.8344 72.3387 22.0545C71.8726 22.2745 71.6749 22.8301 71.8949 23.2963C74.0466 27.8271 75.1355 32.6562 75.1355 37.6569C75.1355 43.2206 73.7446 48.7392 71.108 53.6251C70.627 54.52 70.1012 55.3994 69.5419 56.2422Z" fill="white"/>
<path d="M19.7776 11.5487C19.9827 11.5487 20.1878 11.4816 20.3593 11.3436C24.8901 7.72267 30.3534 5.31747 36.1557 4.39643C37.9083 4.11675 39.6908 3.97878 41.4547 3.97878C41.9693 3.97878 42.3869 3.56112 42.3869 3.04652C42.3869 2.53191 41.9693 2.11426 41.4547 2.11426C39.5939 2.11426 37.7107 2.26342 35.8611 2.55801C29.7417 3.53126 23.9768 6.06706 19.1922 9.89306C18.7894 10.2138 18.726 10.8029 19.0467 11.202C19.2295 11.4332 19.5017 11.5525 19.7739 11.5525L19.7776 11.5487Z" fill="white"/>
<path d="M65.8684 30.4031C65.7192 29.9109 65.2009 29.6275 64.7087 29.7766C64.2165 29.9258 63.9368 30.4441 64.0822 30.9363C64.7348 33.1179 65.0666 35.3738 65.0666 37.6524C65.0666 41.0159 64.3283 44.4094 62.9299 47.467C62.7173 47.9369 62.9224 48.4887 63.3923 48.7013C63.519 48.7573 63.6496 48.7871 63.7801 48.7871C64.1343 48.7871 64.4737 48.5857 64.6303 48.2427C66.1368 44.9425 66.9349 41.2805 66.9349 37.6558C66.9349 35.1983 66.5769 32.7595 65.8721 30.4064L65.8684 30.4031Z" fill="white"/>
<path d="M37.446 12.4996C33.4708 13.1335 29.6672 14.6997 26.4485 17.0341C26.0309 17.3362 25.9377 17.9179 26.2397 18.3356C26.4224 18.5854 26.7058 18.7197 26.9967 18.7197C27.1869 18.7197 27.3771 18.6637 27.5449 18.5407C30.5692 16.348 33.9999 14.9347 37.7404 14.3381C38.2476 14.256 38.5944 13.7787 38.5161 13.2715C38.434 12.7644 37.9604 12.4176 37.4495 12.4959L37.446 12.4996Z" fill="white"/>
<path d="M31.1368 60.9369C31.2599 60.9928 31.3866 61.0189 31.5134 61.0189C31.8714 61.0189 32.2108 60.8138 32.3674 60.4633C32.5762 59.9934 32.3674 59.4415 31.8938 59.2327C26.606 56.8834 22.3772 52.7069 19.9866 47.4716C19.7741 47.0017 19.2184 46.7966 18.7523 47.0129C18.2861 47.2292 18.0773 47.7811 18.2936 48.2472C20.8741 53.8968 25.4385 58.4055 31.1401 60.941L31.1368 60.9369Z" fill="white"/>
<path d="M9.64604 42.1307C17.4696 45.7851 27.4414 44.0474 33.2437 40.4974C33.1691 40.2848 33.1057 40.0648 33.0498 39.8448C33.0386 39.8075 33.0311 39.7702 33.02 39.7329C32.9678 39.5129 32.923 39.2892 32.8857 39.0654C32.8783 39.0244 32.8708 38.9797 32.8671 38.9386C32.8596 38.8827 32.8484 38.8268 32.841 38.7708C32.4457 38.5807 32.0616 38.3979 31.7036 38.2152C29.5221 37.1375 27.7695 35.314 26.7701 33.084C26.0392 31.5775 25.931 29.9554 25.8229 28.3817C25.808 28.1803 25.7968 27.9752 25.7819 27.7739C25.5544 24.3245 24.156 21.289 21.9484 19.4357C18.4879 16.5344 15.0199 15.6208 12.0775 15.6208C8.31859 15.6208 5.41363 17.1162 4.46644 17.8732C2.40051 19.4916 0.886554 21.8559 0.304798 24.3692C0.0213856 25.5886 -0.0643792 26.7894 0.0474946 27.9417C0.756016 34.6204 4.07458 39.5283 9.64604 42.1307Z" fill="white"/>
<path d="M64.3028 60.2468C62.4681 51.808 55.0399 44.9278 48.7002 42.4629C48.6779 42.5002 48.648 42.53 48.6219 42.5673C48.4877 42.7612 48.3497 42.9477 48.2043 43.1304C48.1409 43.205 48.0737 43.2758 48.0104 43.3504C47.891 43.4884 47.768 43.6226 47.6412 43.7531C47.6151 43.7793 47.5964 43.8054 47.5703 43.8315C47.6598 44.2566 47.7419 44.6742 47.8202 45.0658C48.2863 47.4561 47.9022 49.9583 46.735 52.1063C45.9743 53.6053 44.7475 54.6793 43.5579 55.7159C43.405 55.8464 43.2559 55.9807 43.1067 56.1112C40.5038 58.3859 38.9339 61.3356 38.8034 64.2144C38.3261 74.4921 46.0602 78.5455 48.1596 79.0676C50.6991 79.7277 53.4958 79.4965 55.8415 78.4374C56.9825 77.9228 57.9894 77.2665 58.8359 76.4797C63.7209 71.8669 65.6116 66.2507 64.3064 60.247L64.3028 60.2468Z" fill="white"/>
<path d="M40.8913 28.9823C41.0815 28.9712 41.268 28.9637 41.4581 28.9637C41.4992 28.9637 41.5439 28.9674 41.5849 28.9674C41.6483 28.9674 41.7155 28.9712 41.7788 28.9749C41.9578 28.9823 42.1368 28.9935 42.3121 29.0122C42.3829 29.0196 42.4575 29.0271 42.5284 29.0345C42.5731 29.042 42.6216 29.042 42.6663 29.0495C42.9535 28.7176 43.2332 28.3969 43.5017 28.1023C45.1163 26.2863 47.3388 25.0743 49.7553 24.7014C51.411 24.3956 53.0145 24.7238 54.5695 25.0407C54.7597 25.078 54.9499 25.119 55.1401 25.1563C58.5261 25.8499 61.8225 25.3055 64.1905 23.6684C72.6443 17.8176 71.1862 9.2076 70.3322 7.22005C69.3217 4.79985 67.4385 2.71531 65.1713 1.49223C64.0637 0.895579 62.9301 0.492818 61.8003 0.298931C55.1738 -0.789927 49.558 1.10814 45.5715 5.79182C39.9741 12.3698 39.0044 22.445 40.8913 28.9823Z" fill="white"/>
<path d="M34.627 37.6563C34.627 37.7943 34.627 37.936 34.6419 38.0702C34.6941 38.9316 34.8955 39.7334 35.2386 40.4754C36.3461 42.9142 38.7849 44.4841 41.4549 44.4841C43.1032 44.4841 44.6917 43.8875 45.9297 42.8061C46.56 42.2617 47.0783 41.6165 47.4699 40.8856C47.9994 39.9049 48.2791 38.7862 48.2791 37.66C48.2791 34.4344 45.9895 31.6227 42.8384 30.9738H42.8272C42.6147 30.9291 42.4021 30.8993 42.1858 30.8769C42.1075 30.8694 42.0292 30.8657 41.9546 30.862C41.8129 30.8508 41.6712 30.8433 41.5295 30.8396C41.3953 30.8396 41.2647 30.8396 41.1305 30.8471C41.0708 30.8471 41.0112 30.8471 40.9552 30.8545C40.7613 30.8694 40.5674 30.8881 40.3735 30.9216C37.0434 31.4512 34.6271 34.2852 34.6271 37.6638L34.627 37.6563Z" fill="white"/>
</svg>
