<svg width="63" height="56" viewBox="0 0 63 56" fill="none" xmlns="http://www.w3.org/2000/svg">
<path d="M13.66 39.4889H7.09124C3.06043 39.4889 0 35.5206 0 30.1974V27.4873C0 22.1641 3.06043 18.1958 7.09124 18.1958H11.1967L33.5901 41.6182V55.7491L13.66 39.4889Z" fill="white"/>
<path d="M23.2892 10.2595L33.5901 1.93579V21.1964L23.2892 10.2595Z" fill="white"/>
<path d="M57.8496 46.845C60.3128 41.3282 61.6564 35.1338 61.6564 28.8427C61.6564 18.9704 58.4467 9.48532 52.8484 2.71024L53.7441 1.35522C59.641 8.51745 63.0001 18.4865 63.0001 28.9395C63.0001 35.7146 61.5818 42.2961 58.9692 48.1033L57.8496 46.845Z" fill="white"/>
<path d="M50.9822 39.5858C52.2512 36.1982 52.923 32.5203 52.923 28.8424C52.923 22.2609 50.8329 15.9698 47.25 11.324L48.1457 9.96899C52.1019 14.9051 54.3412 21.777 54.3412 28.8424C54.3412 33.0043 53.5948 37.0693 52.1019 40.7472L50.9822 39.5858Z" fill="white"/>
<path d="M43.8164 32.1335C44.0404 31.0689 44.115 30.0042 44.115 28.8428C44.115 25.552 43.2193 22.4549 41.5024 20.0352L42.3982 18.6802C44.4136 21.3902 45.5333 25.0681 45.5333 28.8428C45.5333 30.2946 45.384 31.8432 45.0107 33.295L43.8164 32.1335Z" fill="white"/>
<path d="M4.03088 1.35502L4.92662 0L56.2075 54.2006L55.3864 55.6524L4.03088 1.35502Z" fill="white"/>
</svg>
