<svg width="66" height="66" viewBox="0 0 66 66" fill="none" xmlns="http://www.w3.org/2000/svg">
<path fill-rule="evenodd" clip-rule="evenodd" d="M60.488 15.7082C63.4824 20.636 65.2094 26.4217 65.2094 32.605C65.2094 50.5981 50.5974 65.2071 32.6043 65.2071C25.3856 65.2071 18.7135 62.8552 13.3087 58.8781C12.7912 58.4972 12.6807 57.7704 13.0616 57.2529C13.4424 56.7383 14.1692 56.6249 14.6867 57.0058C19.7046 60.698 25.9027 62.8813 32.6039 62.8813C49.3147 62.8813 62.8833 49.3158 62.8833 32.605C62.8833 26.962 61.3366 21.6793 58.6445 17.1557L58.1735 20.0426C58.0689 20.6735 57.4729 21.1038 56.8362 21.002C56.2024 20.8974 55.7721 20.2985 55.8768 19.6676L56.8274 13.8502C56.8739 13.5565 57.0367 13.2833 57.2867 13.1001C57.2955 13.0972 57.3013 13.0914 57.3071 13.0856C57.5716 12.9024 57.8914 12.8385 58.1938 12.8966L64.2206 14.0595C64.8543 14.1816 65.2642 14.7921 65.1422 15.423C65.023 16.0539 64.4125 16.4667 63.7816 16.3446L60.488 15.7082ZM6.88441 52.3397L0.753009 50.0139C0.151211 49.7871 -0.151114 49.1127 0.0756165 48.5138C0.305287 47.9149 0.976836 47.6126 1.57864 47.8393C1.57864 47.8393 3.05264 48.3975 4.3638 48.8947C1.59025 44.1006 0 38.5361 0 32.6051C0 14.609 14.612 0 32.6051 0C39.8238 0 46.4959 2.34902 51.9007 6.32908C52.4182 6.70702 52.5287 7.43676 52.1478 7.95133C51.767 8.47173 51.0401 8.5793 50.5227 8.20136C45.5047 4.50628 39.3067 2.32583 32.6054 2.32583C15.8947 2.32583 2.32612 15.8914 2.32612 32.6051C2.32612 38.2685 3.88735 43.574 6.59979 48.1095L7.03588 45.2604C7.13182 44.6266 7.72489 44.1905 8.35864 44.2894C8.99533 44.3853 9.43141 44.9784 9.33258 45.6121L8.44587 51.4266C8.40226 51.7261 8.23946 52.0023 7.98652 52.1883C7.95454 52.2116 7.91966 52.2348 7.88187 52.2552C7.5766 52.4354 7.20709 52.4618 6.88441 52.3397ZM34.314 8.59456C36.1078 8.72538 37.5062 10.1993 37.541 11.996C37.5584 12.5542 37.5701 13.1473 37.5759 13.6851C37.5846 14.1881 37.916 14.63 38.3899 14.7753C38.9627 14.9468 39.5237 15.1503 40.0732 15.38H40.079C40.5384 15.5777 41.0733 15.4527 41.4018 15.0748C41.4047 15.0718 41.4076 15.066 41.4134 15.0602C41.7652 14.6677 42.149 14.2258 42.5036 13.813C43.6868 12.4466 45.719 12.2111 47.1843 13.2693C47.1901 13.2751 47.196 13.2781 47.2018 13.281C48.0507 13.9177 48.8647 14.6008 49.6322 15.3335L49.638 15.3393C50.9289 16.5923 51.0509 18.6216 49.9229 20.02C49.5799 20.459 49.2048 20.9212 48.8647 21.337C48.5478 21.7294 48.5187 22.2789 48.7891 22.6975C49.1176 23.1918 49.4142 23.7093 49.6874 24.2413L49.6903 24.2442C49.9171 24.6919 50.4084 24.939 50.9026 24.8605C50.9085 24.8605 50.9143 24.8576 50.9201 24.8576C51.4434 24.782 52.019 24.689 52.5568 24.6018C54.3419 24.3168 56.0513 25.4419 56.4933 27.195C56.4933 27.2009 56.4962 27.2096 56.4991 27.2154C56.7404 28.2475 56.9236 29.2941 57.0399 30.3494L57.0428 30.3581C57.223 32.146 56.0136 33.78 54.2518 34.1259C53.7081 34.2422 53.1238 34.3527 52.5946 34.4544C52.1004 34.5504 51.7224 34.9545 51.6614 35.4458C51.5946 36.0389 51.4899 36.6261 51.3591 37.2076V37.2134C51.2457 37.7018 51.4608 38.2047 51.8911 38.4635C51.894 38.4664 51.8998 38.4693 51.9056 38.4722C52.3533 38.7513 52.8563 39.0508 53.3214 39.3298C54.8739 40.2573 55.4612 42.2196 54.6733 43.8448C54.6675 43.8535 54.6675 43.8564 54.6646 43.8622C54.1849 44.81 53.6528 45.7287 53.0627 46.6125L53.0598 46.6183C52.0481 48.1068 50.0712 48.5807 48.4983 47.7144C48.007 47.4527 47.4895 47.162 47.0185 46.9003C46.5795 46.6561 46.0301 46.723 45.6667 47.0602C45.2335 47.4701 44.777 47.8539 44.3032 48.2144L44.2974 48.2202C43.8991 48.5197 43.7392 49.0459 43.902 49.5169C43.9049 49.5256 43.9078 49.5314 43.9078 49.5343C44.0735 50.0373 44.2654 50.5897 44.4427 51.1042C45.0358 52.8108 44.2247 54.6918 42.5734 55.4302C42.5705 55.4331 42.5617 55.436 42.5559 55.4389C41.582 55.8547 40.5819 56.2181 39.5644 56.5146L39.5557 56.5175C37.8259 57.0089 36.0059 56.1018 35.3576 54.4272C35.1512 53.9097 34.939 53.3544 34.7471 52.8515C34.5669 52.3805 34.1046 52.081 33.6104 52.1043C33.0144 52.1392 32.4184 52.1392 31.8225 52.113H31.8167C31.3166 52.0869 30.8572 52.3863 30.68 52.8544C30.6771 52.8573 30.6741 52.8631 30.6712 52.8718C30.4765 53.3602 30.27 53.9068 30.0753 54.4156C29.4298 56.1046 27.6012 57.0234 25.8597 56.5291C25.8539 56.5262 25.8481 56.5233 25.8423 56.5233C24.8247 56.2151 23.8276 55.8517 22.8565 55.4243L22.8478 55.4214C21.2081 54.6859 20.397 52.8223 20.9785 51.1216C21.15 50.5925 21.3477 50.0284 21.5221 49.5227C21.6878 49.0459 21.525 48.5167 21.1296 48.2202C20.6529 47.8626 20.1964 47.4818 19.7574 47.0747L19.7516 47.0718C19.3853 46.7317 18.8416 46.6648 18.4026 46.909C18.3997 46.909 18.3939 46.9148 18.391 46.9177C17.9229 47.1677 17.4112 47.4498 16.9374 47.7143C15.3558 48.5952 13.3673 48.1213 12.3526 46.6241C12.3468 46.6183 12.3439 46.6154 12.341 46.6096C11.7595 45.72 11.2275 44.8013 10.7594 43.8477L10.7565 43.8419C9.97156 42.2225 10.5501 40.2747 12.0881 39.3444C12.559 39.0507 13.0707 38.7455 13.5301 38.4693C13.9633 38.2105 14.1813 37.7018 14.0708 37.2191C13.9313 36.6406 13.8266 36.0533 13.751 35.4602V35.4573C13.69 34.9602 13.3149 34.5561 12.8236 34.4631C12.8178 34.4631 12.812 34.4602 12.8062 34.4602C12.2887 34.3526 11.716 34.2421 11.181 34.1404C9.40469 33.8002 8.18366 32.1576 8.36972 30.3552V30.3348C8.49765 29.2824 8.6808 28.2358 8.93373 27.2066V27.1979C9.37563 25.4535 11.0706 24.3313 12.8469 24.6104C13.3963 24.6889 13.9836 24.782 14.5127 24.8692C15.0128 24.9477 15.5041 24.6976 15.7309 24.2557C15.9983 23.7208 16.2949 23.2062 16.6176 22.7033L16.6205 22.7004C16.8909 22.2788 16.8647 21.7323 16.5478 21.3427L16.5362 21.3311C16.2077 20.9124 15.8413 20.4589 15.4983 20.0374C14.3557 18.6361 14.4779 16.5923 15.7745 15.3334C15.7774 15.3276 15.7832 15.3247 15.789 15.3189C16.5624 14.5921 17.3764 13.9118 18.2311 13.2838L18.2398 13.278C19.6963 12.2255 21.7169 12.4552 22.8972 13.8071C23.2693 14.2228 23.6589 14.6735 24.0107 15.0805C24.3421 15.4613 24.88 15.5863 25.3364 15.3915C25.8829 15.156 26.444 14.9496 27.0109 14.7723H27.0168C27.4964 14.624 27.8249 14.1879 27.8337 13.6879V13.6676C27.8483 13.1384 27.8599 12.5541 27.8686 12.0104C27.8948 10.2021 29.299 8.71647 31.1044 8.58563C31.1102 8.58563 31.1189 8.58563 31.1248 8.58272C32.183 8.52458 33.2471 8.52458 34.3053 8.59435L34.314 8.59456ZM34.1483 10.9146C33.1888 10.8535 32.2266 10.8535 31.2556 10.9058C30.6625 10.9582 30.2031 11.4495 30.1944 12.0484C30.1857 12.6008 30.174 13.1968 30.1595 13.7346C30.1304 15.2376 29.1391 16.5547 27.7058 16.9936C27.2144 17.1477 26.7289 17.325 26.258 17.5256L26.2492 17.5286C24.8567 18.1187 23.2431 17.7437 22.2547 16.604C21.9087 16.2057 21.525 15.7638 21.1615 15.3568C21.1586 15.3539 21.1528 15.3481 21.1499 15.3423C20.7574 14.8917 20.0887 14.8132 19.6032 15.162C18.827 15.7319 18.0885 16.3511 17.3821 17.014C16.9605 17.4355 16.9256 18.1071 17.3007 18.5723C17.6495 18.9996 18.0275 19.4619 18.3589 19.8863C19.3038 21.055 19.391 22.7005 18.5741 23.9594C18.2979 24.3926 18.0391 24.8374 17.8095 25.2997L17.8037 25.3055C17.1176 26.6516 15.6407 27.4016 14.1492 27.1661C13.6259 27.0818 13.0503 26.9888 12.5096 26.9103H12.4921C11.9019 26.8144 11.3379 27.1865 11.1897 27.765C10.9629 28.6982 10.7972 29.646 10.6809 30.6112C10.6286 31.2043 11.0327 31.7421 11.6199 31.8555C12.1636 31.9602 12.7479 32.0736 13.2742 32.1811C14.7511 32.4719 15.8762 33.6783 16.0593 35.164C16.1233 35.6756 16.2134 36.1815 16.3326 36.6816L16.3355 36.6903C16.6728 38.1643 16.0245 39.6876 14.7278 40.4639C14.2743 40.7372 13.7743 41.0366 13.312 41.3244C13.3062 41.3273 13.3004 41.3302 13.2946 41.3331C12.7829 41.6384 12.5881 42.2867 12.8468 42.8245C13.2742 43.688 13.7568 44.5223 14.2859 45.3335C14.6261 45.8248 15.2831 45.9731 15.8064 45.6824C16.2891 45.4149 16.8095 45.1242 17.2834 44.8683C18.6003 44.1444 20.2372 44.345 21.3331 45.3654C21.7111 45.7143 22.1065 46.0457 22.5193 46.3539L22.5252 46.3568C23.7317 47.2697 24.2142 48.8512 23.7201 50.2816C23.5485 50.7816 23.3567 51.334 23.188 51.8486C23.1851 51.8573 23.1822 51.8602 23.1822 51.8689C22.9874 52.4329 23.252 53.0522 23.7986 53.2993C24.6795 53.686 25.5836 54.0145 26.511 54.2965C27.0866 54.4506 27.6884 54.1453 27.9007 53.5871C28.0984 53.0696 28.3106 52.5114 28.5112 52.0114C29.0519 50.6101 30.4329 49.7118 31.9302 49.7873C32.4447 49.8135 32.9593 49.8135 33.4739 49.7844H33.4826C34.9914 49.703 36.3811 50.6072 36.919 52.0201C37.108 52.5143 37.3173 53.0609 37.5179 53.5667C37.5208 53.5696 37.5237 53.5754 37.5266 53.5842C37.7388 54.1424 38.3436 54.4447 38.9192 54.2819C39.8408 54.0115 40.7449 53.683 41.6374 53.3022C42.1782 53.0492 42.4427 52.43 42.248 51.866C42.0648 51.3427 41.87 50.7787 41.7014 50.267C41.2159 48.8453 41.6956 47.2697 42.8934 46.3655C43.3033 46.0544 43.6987 45.723 44.0708 45.3683L44.0766 45.3654C45.1843 44.3363 46.8298 44.1328 48.1497 44.8683C48.612 45.127 49.1207 45.409 49.6004 45.6649C49.6062 45.6707 49.612 45.6736 49.6179 45.6765C50.1383 45.9672 50.7982 45.8102 51.1326 45.316C51.6675 44.5165 52.1472 43.6821 52.5862 42.8186C52.8391 42.2779 52.6414 41.6324 52.1297 41.3243C51.6559 41.0394 51.1442 40.7371 50.6848 40.4521C49.3998 39.6759 48.7544 38.1583 49.0888 36.6959C49.2022 36.1959 49.2923 35.69 49.3504 35.1783L49.3533 35.1696C49.5394 33.6695 50.6703 32.4572 52.1559 32.1723C52.6705 32.0734 53.2461 31.96 53.7782 31.8496C53.784 31.8466 53.7898 31.8466 53.7985 31.8466C54.3829 31.7333 54.787 31.1925 54.7288 30.5965C54.6213 29.643 54.4555 28.6923 54.2346 27.7474C54.0805 27.1718 53.5165 26.8055 52.9263 26.9014C52.3798 26.9887 51.7896 27.0817 51.2576 27.1573C49.772 27.3928 48.3038 26.6427 47.6235 25.3082C47.3851 24.8489 47.1293 24.4041 46.8473 23.9738L46.8414 23.968C46.0187 22.7004 46.1088 21.0433 47.0595 19.8717C47.3938 19.4617 47.7601 19.0082 48.0974 18.5808C48.1032 18.575 48.1061 18.5692 48.1119 18.5634C48.4869 18.1011 48.4491 17.4267 48.0189 17.0109C47.324 16.3452 46.5856 15.7288 45.8093 15.1445C45.3209 14.8014 44.6522 14.8857 44.2627 15.3364C43.8993 15.755 43.5097 16.2057 43.1521 16.6068C42.1636 17.7406 40.5559 18.1098 39.1749 17.5255C38.704 17.3278 38.2184 17.1505 37.7242 17.0051L37.7184 17.0022C36.2706 16.5603 35.2764 15.2346 35.2531 13.7229C35.2444 13.1967 35.2356 12.6094 35.2153 12.0686V12.0483C35.2066 11.4494 34.7442 10.9582 34.1483 10.9146ZM32.7063 18.5082C40.7219 18.5082 47.2312 25.0175 47.2312 33.0331C47.2312 41.0487 40.7218 47.555 32.7063 47.555C24.6907 47.555 18.1814 41.0486 18.1814 33.0331C18.1814 25.0176 24.6907 18.5082 32.7063 18.5082ZM36.3054 37.9668C36.5467 38.3098 36.9654 38.5104 37.4102 38.4523C38.044 38.368 38.4917 37.7807 38.4073 37.1469L38.2329 36.6614L37.9625 36.3358C37.3549 35.6991 34.8372 33.3995 33.872 32.5186L33.8691 23.4915C33.8691 22.849 33.3487 22.3286 32.7062 22.3286C32.0637 22.3286 31.5433 22.8519 31.5433 23.4915L31.5462 33.0329C31.5462 33.3614 31.6858 33.6725 31.9271 33.8934C31.9271 33.8934 35.5466 37.1757 36.2822 37.9461C36.2909 37.9519 36.2967 37.961 36.3054 37.9668Z" fill="white"/>
</svg>
