<svg width="66" height="66" viewBox="0 0 66 66" fill="none" xmlns="http://www.w3.org/2000/svg">
<path d="M62.924 9.74603C54.29 9.74603 46.7025 6.73719 39.6382 0.588686L38.9841 0L37.0872 1.56983C30.2846 7.06424 23.0242 9.74603 14.9788 9.74603H12.7549V25.5752C12.7549 26.0984 12.8203 26.6871 12.8203 27.2104L9.22275 25.3135L13.3436 33.0973C13.409 33.5551 13.4744 34.0784 13.6052 34.5363L0 37.6759L14.1285 40.9464L9.28816 50.0383L17.3335 45.198C17.9222 46.3754 18.5109 47.4874 19.2304 48.5993L21.716 59.2611L22.8279 53.5705C27.0142 58.607 32.3778 62.597 38.6571 65.148L39.0495 65.2788L39.442 65.148C55.1403 58.8686 65.2788 43.3012 65.2788 25.4443V9.74603H62.924ZM62.9894 25.5752C62.9894 42.6471 53.7667 56.9718 38.9187 63.0549C32.5086 60.4385 27.2104 56.2523 23.2204 51.0195L24.5286 44.3477L34.013 50.0383L28.911 40.4231L43.3012 37.6105L29.1727 34.34L34.013 25.2481L24.9211 30.0884L21.6506 15.9599L18.3801 30.0884L15.0442 28.3224C14.9788 27.472 14.9134 26.5563 14.9134 25.5752V11.9045C23.482 11.9045 31.2004 9.09193 38.3954 3.20507L38.9187 2.81261C46.1792 8.96111 54.0283 11.9045 62.924 11.9045H62.9894V25.5752Z" fill="white"/>
<path d="M39.7037 10.3347L38.2646 11.97C43.3666 16.4832 48.9264 18.6417 55.2057 18.7071V27.7991C55.2057 39.5074 48.7956 49.3188 38.5263 53.4396L39.3112 55.4673C50.2346 51.0849 57.2988 40.2269 57.2988 27.7991V16.614H55.4674C49.6459 16.614 44.4786 14.5209 39.7037 10.3347Z" fill="white"/>
</svg>
