<svg width="87" height="66" viewBox="0 0 87 66" fill="none" xmlns="http://www.w3.org/2000/svg">
<path fill-rule="evenodd" clip-rule="evenodd" d="M78.109 20.961H84.9176C85.9957 20.961 86.8785 21.8438 86.8785 22.9219V25.1797C86.8785 26.2578 85.9957 27.1406 84.9176 27.1406H78.109C78.0113 27.1406 77.9332 27.0625 77.9332 26.9648V21.1367C77.9332 21.043 78.0113 20.961 78.109 20.961ZM63.754 60.676L66.297 65.3869C66.3283 65.4416 66.3243 65.508 66.2931 65.5627C66.2618 65.6174 66.2033 65.6486 66.1408 65.6486H9.82475C9.76225 65.6486 9.70366 65.6174 9.67241 65.5627C9.64116 65.508 9.63726 65.4455 9.66851 65.3869L12.2115 60.676C13.6177 58.0705 16.1568 56.5549 19.1177 56.5549H26.4185C26.5162 56.5549 26.5943 56.4768 26.5943 56.3791V46.1211C26.5943 46.0235 26.6724 45.9453 26.7701 45.9453H49.1881C49.2857 45.9453 49.3638 46.0235 49.3638 46.1211V56.3791C49.3638 56.4768 49.442 56.5549 49.5396 56.5549H56.8404C59.8052 56.5588 62.3477 58.0705 63.754 60.676ZM11.188 1.582C5.0357 1.582 0 6.6172 0 12.77V35.34C0 41.4923 5.0352 46.528 11.188 46.528H15.2271C15.3248 46.528 15.4029 46.4499 15.4029 46.3522L15.4068 1.75822C15.4068 1.66056 15.3287 1.58244 15.231 1.58244L11.188 1.582ZM61.055 0C60.0042 0 59.1409 0.859379 59.1409 1.9141V45.9731C59.1409 47.0239 60.0003 47.8872 61.055 47.8872H61.9378C62.9886 47.8872 63.8519 47.0278 63.8519 45.9731V1.9141C63.8519 0.863299 62.9925 0 61.9378 0H61.055ZM18.243 4.8203H56.302C56.3997 4.8203 56.4778 4.89842 56.4778 4.99608V43.1091C56.4778 43.2067 56.3997 43.2849 56.302 43.2849H18.243C18.1453 43.2849 18.0672 43.2067 18.0672 43.1091V4.99608C18.0672 4.89842 18.1453 4.8203 18.243 4.8203ZM24.7586 9.7773C23.45 9.7773 22.3797 10.8476 22.3797 12.1562C22.3797 13.4648 23.45 14.5351 24.7586 14.5351H51.2036C52.5122 14.5351 53.5825 13.4648 53.5825 12.1562C53.5825 10.8476 52.5122 9.7773 51.2036 9.7773H24.7586ZM24.7586 21.6753C23.45 21.6753 22.3797 22.7456 22.3797 24.0542C22.3797 25.3628 23.45 26.4331 24.7586 26.4331H51.2036C52.5122 26.4331 53.5825 25.3628 53.5825 24.0542C53.5825 22.7456 52.5122 21.6753 51.2036 21.6753H24.7586ZM24.7586 33.5703C23.45 33.5703 22.3797 34.6406 22.3797 35.9492C22.3797 37.2578 23.45 38.3281 24.7586 38.3281H51.2036C52.5122 38.3281 53.5825 37.2578 53.5825 35.9492C53.5825 34.6406 52.5122 33.5703 51.2036 33.5703H24.7586ZM72.5246 14.3863H66.6887C66.591 14.3863 66.5129 14.4644 66.5129 14.5621V33.5391C66.5129 33.6367 66.591 33.7149 66.6887 33.7149H72.5246C74.0363 33.7149 75.2707 32.4766 75.2707 30.9688L75.2746 17.1368C75.2746 15.6251 74.0363 14.3863 72.5246 14.3863Z" fill="white"/>
</svg>
