<svg width="75" height="76" viewBox="0 0 75 76" fill="none" xmlns="http://www.w3.org/2000/svg">
<path d="M49.2746 49.7452C50.3314 51.8482 50.5664 53.8782 49.9325 55.4645C49.2364 57.2074 47.5911 58.1518 45.7346 57.8676C44.047 57.6101 42.4133 56.3794 41.1374 54.4017C39.6185 52.0492 38.6178 48.6691 38.2299 44.5911L38.2324 44.5907C39.8331 44.3736 41.2884 43.5421 42.2868 42.27C45.6059 44.6689 48.0178 47.2477 49.2746 49.7452Z" fill="white"/>
<path d="M32.0184 41.6118C32.8444 43.0011 34.1829 44.0119 35.7423 44.4315C34.8383 48.425 33.4149 51.6532 31.6077 53.7943C30.0898 55.5927 28.3139 56.6045 26.6051 56.6462C24.7294 56.6891 23.215 55.5446 22.7473 53.7297C22.3209 52.0753 22.8108 50.0905 24.1295 48.1417C25.7015 45.8177 28.4197 43.5685 32.0184 41.6118Z" fill="white"/>
<path d="M57.0664 30.15C58.6007 31.2269 59.1389 33.0485 58.4399 34.7893C57.8006 36.3738 56.2285 37.6769 54.01 38.4643C51.3732 39.4016 47.8504 39.5971 43.794 39.0351L43.789 39.0359C43.9484 37.426 43.4729 35.8181 42.4639 34.5535C45.5654 31.8746 48.6235 30.1234 51.3482 29.4755C53.6389 28.9284 55.6685 29.1693 57.0664 30.15Z" fill="white"/>
<path d="M40.6236 34.611C41.6734 35.5064 42.2941 36.8028 42.3367 38.1822L42.3382 38.2077C42.3389 38.2436 42.3391 38.277 42.3398 38.3129C42.3401 38.3308 42.3404 38.3488 42.3403 38.3642C42.3394 38.3901 42.3388 38.4185 42.3378 38.4444C42.3368 38.4702 42.3384 38.4957 42.3374 38.5216C42.3343 38.5658 42.3336 38.6096 42.3305 38.6539C42.3273 38.6981 42.3242 38.7423 42.3206 38.784C42.3171 38.8103 42.3141 38.8391 42.3106 38.8654C42.3071 38.8917 42.3057 38.915 42.3019 38.9388C42.298 38.9626 42.2958 38.9809 42.2915 39.0022C42.2885 39.031 42.2833 39.0627 42.2802 39.0915C42.2776 39.1073 42.275 39.1232 42.2724 39.139C42.2681 39.1757 42.2608 39.2103 42.2539 39.2475C42.2526 39.2554 42.2514 39.2633 42.248 39.2742C42.2394 39.3167 42.2308 39.3592 42.2218 39.3992C42.2223 39.4017 42.2206 39.4072 42.2189 39.4126L42.2231 39.4068C41.9098 40.8127 40.997 42.0093 39.7241 42.6803C39.6483 42.7208 39.5696 42.7592 39.4906 42.7951C38.7487 43.1386 37.9318 43.2884 37.1161 43.2374C37.0643 43.2355 37.0147 43.2306 36.9625 43.2262L36.965 43.2258C36.2024 43.1534 35.4677 42.9041 34.8207 42.4967C34.7463 42.4496 34.6743 42.402 34.6044 42.3516L34.6019 42.352C33.34 41.4651 32.569 40.0335 32.5231 38.49L32.522 38.4671C32.5205 38.4262 32.5215 38.3848 32.5201 38.3439C32.521 38.3335 32.5194 38.3235 32.5202 38.313C32.5196 38.2771 32.5219 38.2433 32.5212 38.2074C32.5209 38.1895 32.5206 38.1715 32.5231 38.1557C32.5263 38.1115 32.5269 38.0676 32.5301 38.0234C32.5332 37.9792 32.5364 37.9349 32.54 37.8932C32.54 37.8778 32.543 37.8644 32.5456 37.8486C32.55 37.8119 32.5518 37.7756 32.5587 37.7384C32.5579 37.7334 32.5592 37.7255 32.5609 37.7201C32.5665 37.6755 32.5722 37.6308 32.5804 37.5858C32.58 37.5833 32.5796 37.5808 32.5817 37.5779C32.8179 36.0455 33.7686 34.7167 35.1389 33.9966C35.2122 33.9565 35.2909 33.9181 35.37 33.8822C36.8779 33.1862 38.6348 33.2988 40.0427 34.1827C40.1143 34.2277 40.1867 34.2778 40.2586 34.3253C40.3019 34.3544 40.3431 34.3863 40.3842 34.4182C40.3959 34.4266 40.4046 34.4329 40.4162 34.4414C40.4865 34.4943 40.5576 34.5522 40.6236 34.611Z" fill="white"/>
<path d="M41.1857 17.5016C42.4533 18.6473 43.1371 20.5739 43.1108 22.9289C43.0817 25.7293 42.052 29.1026 40.1278 32.7182L40.0891 32.7013C40.0724 32.6937 40.0554 32.6836 40.0362 32.6764C39.9975 32.6595 39.9587 32.6426 39.92 32.6257L39.8729 32.605C39.8179 32.583 39.7655 32.5606 39.7105 32.5386L39.6913 32.5314C39.6421 32.5136 39.5926 32.4933 39.5459 32.4752C39.5293 32.4676 39.5105 32.4629 39.4943 32.4578C39.4559 32.4434 39.4151 32.4294 39.3747 32.4179L39.3205 32.4009C39.2717 32.3857 39.2255 32.37 39.1771 32.3572L39.1821 32.3564C39.1738 32.3526 39.1659 32.3513 39.1579 32.35C39.1013 32.3334 39.045 32.3194 38.9883 32.3028C38.9724 32.3002 38.9562 32.2951 38.9399 32.29C38.897 32.2789 38.8566 32.2675 38.814 32.2589L38.7582 32.2473C38.7156 32.2388 38.6727 32.2277 38.6277 32.2195L38.5826 32.2114C38.5267 32.1998 38.4688 32.1912 38.4108 32.1825L38.3741 32.1781C38.329 32.17 38.2819 32.1647 38.2343 32.157C38.216 32.1548 38.1976 32.1526 38.1768 32.1508C38.1346 32.1448 38.0929 32.1412 38.0508 32.1352C38.0404 32.1343 38.027 32.1313 38.0141 32.1308L37.9957 32.1286C37.9381 32.1225 37.8785 32.1192 37.8213 32.1156C37.7616 32.1124 37.7045 32.1087 37.6452 32.108L37.5909 32.1065C37.5496 32.1054 37.5058 32.1048 37.4645 32.1037L37.4077 32.1026C37.3614 32.1024 37.315 32.1021 37.2691 32.1044L37.2332 32.105C37.1743 32.1068 37.1155 32.1086 37.0595 32.1125C37.0445 32.1149 37.029 32.1148 37.0136 32.1148C36.9702 32.1166 36.9271 32.121 36.8841 32.1254L36.8257 32.1297L36.6991 32.1424C36.6866 32.1444 36.6736 32.1439 36.6611 32.1459L36.6648 32.153L36.6523 32.1551C36.5946 32.1644 36.5391 32.1707 36.4814 32.18L36.4514 32.1849L36.3085 32.208L36.2479 32.2152C36.2078 32.2216 36.1681 32.2306 36.1309 32.2392C36.1109 32.2424 36.0912 32.2482 36.0712 32.2514C36.0239 32.2616 35.9767 32.2718 35.9299 32.2845L35.9002 32.2918C35.8459 32.3057 35.789 32.3201 35.7351 32.3365C35.7155 32.3422 35.6983 32.3476 35.6787 32.3533C35.6394 32.3648 35.6026 32.3759 35.5633 32.3874L35.5022 32.4075L35.4654 32.4186C34.0189 28.5858 33.4294 25.1082 33.7574 22.3269C34.0333 19.9882 34.9581 18.1647 36.3594 17.1901C37.1294 16.6543 37.9889 16.4179 38.8284 16.4728C39.668 16.5276 40.4877 16.8735 41.1857 17.5016Z" fill="white"/>
<path d="M32.8723 33.9407C31.7111 35.0643 31.0328 36.5985 30.9851 38.2162C26.8891 38.2548 23.4215 37.6132 20.9233 36.3471C18.8228 35.2844 17.4293 33.7886 16.9978 32.135C16.5251 30.3209 17.2888 28.5826 18.9509 27.71C19.8069 27.2606 20.8335 27.0718 21.961 27.142C22.8264 27.1978 23.7524 27.4059 24.7061 27.7689C27.3249 28.7609 30.1395 30.889 32.8723 33.9407Z" fill="white"/>
<path d="M61.4305 8.613L12.9981 9.08795C10.2789 9.11522 8.08797 11.3488 8.11523 14.0681L8.58977 62.4979C8.61703 65.2171 10.8506 67.4081 13.5699 67.3808L61.9997 66.9063C64.719 66.879 66.9099 64.6454 66.8826 61.9261L66.4107 13.4959C66.3834 10.7767 64.1502 8.58824 61.4305 8.613ZM14.2569 62.7941C14.2611 63.2024 14.0196 63.5706 13.6443 63.7314C13.2711 63.8894 12.8361 63.8078 12.5458 63.5229C12.2555 63.2379 12.1651 62.805 12.3177 62.428C12.4679 62.0514 12.834 61.802 13.2397 61.7983C13.5069 61.7963 13.7652 61.8987 13.955 62.0867C14.1443 62.2721 14.255 62.527 14.2569 62.7941ZM10.9688 12.9767C10.9651 12.571 11.2062 12.2003 11.5819 12.042C11.9546 11.8815 12.3896 11.9631 12.6799 12.248C12.9702 12.5329 13.0606 12.9659 12.908 13.3429C12.7558 13.7224 12.3917 13.9689 11.986 13.9726C11.7192 13.9771 11.4605 13.8722 11.2712 13.6867C11.0789 13.4991 10.9708 13.2439 10.9688 12.9767ZM63.465 62.3125C63.4692 62.7208 63.2277 63.089 62.8524 63.2498C62.4767 63.4082 62.0442 63.3262 61.7539 63.0413C61.4636 62.7563 61.3732 62.3234 61.5233 61.9468C61.676 61.5698 62.0421 61.3204 62.4478 61.3167C62.715 61.3147 62.9733 61.4171 63.1631 61.6051C63.3524 61.7905 63.4631 62.0454 63.465 62.3125ZM41.2717 61.3722C28.3625 63.4551 16.2083 54.6783 14.1254 41.7692C12.0424 28.86 20.8192 16.7058 33.7283 14.6228C46.6375 12.5399 58.7917 21.3167 60.8747 34.2258C62.9577 47.135 54.1808 59.2892 41.2717 61.3722ZM63.5356 12.4627C63.5398 12.8709 63.2983 13.2391 62.9251 13.397C62.5499 13.5579 62.1149 13.4763 61.8246 13.1914C61.5343 12.9064 61.4439 12.4735 61.5965 12.0965C61.7491 11.7195 62.1128 11.4705 62.521 11.4664C63.0758 11.4617 63.531 11.9079 63.5356 12.4627Z" fill="white"/>
</svg>
