<svg width="68" height="68" viewBox="0 0 68 68" fill="none" xmlns="http://www.w3.org/2000/svg">
<path d="M27.6211 33.9998C27.6211 37.505 30.4953 40.3793 34.0006 40.3793C37.5058 40.3793 40.3801 37.5051 40.3801 33.9998C40.3801 30.4946 37.5058 27.6204 34.0006 27.6204C30.4953 27.6204 27.6211 30.4946 27.6211 33.9998ZM35.0521 31.1256V32.9483H36.8747C37.4356 32.9483 37.9263 33.439 37.9263 33.9998C37.9263 34.5607 37.4356 35.0514 36.8747 35.0514H35.0521V36.8741C35.0521 37.4349 34.5613 37.9257 34.0005 37.9257C33.4396 37.9257 32.9489 37.4349 32.9489 36.8741V35.0514H31.1262C30.5654 35.0514 30.0747 34.5607 30.0747 33.9998C30.0747 33.439 30.5654 32.9483 31.1262 32.9483H32.9489V31.1256C32.9489 30.5648 33.4396 30.074 34.0005 30.074C34.5613 30.074 35.0521 30.4946 35.0521 31.1256Z" fill="white"/>
<path d="M54.5407 20.68C47.2499 20.0491 42.3424 24.045 40.0991 28.1812C41.5713 29.7235 42.4826 31.7565 42.4826 33.9998C42.4826 35.1215 42.2723 36.1731 41.8517 37.1545H42.763C45.4971 37.0844 49.2126 37.0143 52.998 39.8185C57.3444 42.9731 61.5506 43.9546 64.3546 42.5526C66.7381 41.3608 68 38.4164 68 34.07C68 26.9194 62.3223 21.3109 54.5407 20.68Z" fill="white"/>
<path d="M28.1818 27.9008C29.7241 26.4287 31.7571 25.5174 34.0004 25.5174C35.1221 25.5174 36.1736 25.7277 37.1551 26.1483V25.237C37.085 22.5029 37.0148 18.7874 39.819 15.002C42.9737 10.6555 43.9552 6.44938 42.5531 3.6454C41.3614 1.26191 38.417 0 34.0706 0C26.9901 0 21.3814 5.67839 20.7506 13.46C20.0496 20.7508 23.9756 25.6575 28.1818 27.9008Z" fill="white"/>
<path d="M27.9008 39.8184C26.4287 38.276 25.5174 36.2431 25.5174 33.9997C25.5174 32.8781 25.7277 31.8265 26.1483 30.8451H25.237C22.5029 30.9152 18.7874 30.9853 15.002 28.1811C10.6555 25.0264 6.44938 24.0449 3.6454 25.447C1.26191 26.6388 0 29.5832 0 33.9296C0 41.01 5.67839 46.6187 13.46 47.2495C20.7508 47.9506 25.6575 44.0245 27.9008 39.8184Z" fill="white"/>
<path d="M39.8184 40.0991C38.276 41.5713 36.2431 42.4826 33.9997 42.4826C32.8781 42.4826 31.8265 42.2723 30.8451 41.8517V42.763C30.9152 45.4971 30.9853 49.2126 28.1811 52.998C25.0264 57.3444 24.0449 61.5506 25.447 64.3546C26.6388 66.7381 29.5832 68 33.9296 68C41.01 68 46.6187 62.3216 47.2495 54.54C47.9506 47.2492 44.0245 42.3424 39.8184 40.0991Z" fill="white"/>
<path d="M5.81843 18.5067C6.37926 18.5067 6.87001 18.016 6.87001 17.4551C6.87001 14.651 7.92159 11.987 9.95458 10.0242C11.9175 8.06125 14.5814 6.93959 17.3856 6.93959H17.4557C18.0165 6.93959 18.5072 6.44886 18.5072 5.88801C18.5072 5.32716 18.0165 4.83643 17.4557 4.83643H17.3856C14.0206 4.83643 10.8659 6.16842 8.48233 8.55191C6.09875 10.9354 4.76685 14.1602 4.76685 17.5252C4.76685 18.0159 5.25758 18.5067 5.81843 18.5067Z" fill="white"/>
<path d="M11.4263 11.4267C9.8139 13.0391 8.97266 15.1422 8.97266 17.4556C8.97266 18.0165 9.46339 18.5072 10.0242 18.5072C10.5851 18.5072 11.0758 18.0165 11.0758 17.4556C11.0758 15.7732 11.7067 14.1607 12.8985 12.969C14.0902 11.7773 15.7026 11.1463 17.3851 11.1463H17.4552C18.0161 11.1463 18.5068 10.6556 18.5068 10.0948C18.5068 9.53391 18.0161 9.04318 17.4552 9.04318C15.1418 8.90297 13.0387 9.81433 11.4263 11.4267Z" fill="white"/>
<path d="M17.455 61.1299C17.3849 61.1299 17.3849 61.1299 17.455 61.1299C14.5808 61.1299 11.9868 60.0082 9.95385 58.0453C7.99094 56.0824 6.86928 53.4185 6.86928 50.6143C6.86928 50.0535 6.37854 49.5627 5.81769 49.5627C5.25684 49.5627 4.76611 50.0535 4.76611 50.6143C4.76611 53.9793 6.09811 57.2041 8.4816 59.5876C10.8651 61.9711 14.0198 63.3031 17.3848 63.3031H17.4549C18.0158 63.3031 18.5065 62.8124 18.5065 62.2515C18.5065 61.6206 18.0158 61.1299 17.455 61.1299Z" fill="white"/>
<path d="M17.4547 56.9239C15.7722 56.9239 14.1598 56.2929 12.9681 55.1012C11.7763 53.9095 11.0752 52.2971 11.1454 50.6146C11.1454 50.0537 10.6547 49.563 10.0938 49.563C9.53297 49.563 9.04224 50.0537 9.04224 50.6146C9.04224 52.8579 9.88348 55.0311 11.4959 56.6435C13.1083 58.256 15.2114 59.0972 17.4547 59.0972H17.5248C18.0856 59.0972 18.5764 58.6065 18.5764 58.0456C18.5063 57.4147 18.0155 56.9239 17.4547 56.9239Z" fill="white"/>
<path d="M62.1812 49.4932C61.6204 49.4932 61.1297 49.9839 61.1297 50.5447C61.1297 53.3489 60.0781 56.0129 58.0451 57.9757C56.0822 59.9386 53.4183 61.0603 50.6141 61.0603H50.544C49.9832 61.0603 49.4924 61.551 49.4924 62.1119C49.4924 62.6727 49.9832 63.1634 50.544 63.1634H50.6141C53.9791 63.1634 57.1338 61.8315 59.5173 59.448C61.9009 57.0645 63.2328 53.8397 63.2328 50.4747C63.2328 49.9839 62.7421 49.4932 62.1812 49.4932Z" fill="white"/>
<path d="M50.6147 59.0274C52.858 59.0274 54.9611 58.1161 56.5735 56.5737C58.1859 54.9613 59.0271 52.8582 59.0271 50.5447C59.0271 49.9839 58.5364 49.4932 57.9755 49.4932C57.4147 49.4932 56.924 49.9839 56.924 50.5447C56.924 52.2272 56.293 53.8396 55.1013 55.0314C53.9096 56.2231 52.2971 56.9242 50.6147 56.8541C50.0538 56.8541 49.5631 57.3448 49.5631 57.9056C49.493 58.5366 49.9837 59.0274 50.6147 59.0274Z" fill="white"/>
<path d="M50.5447 6.87027C53.4189 6.87027 56.0128 7.92185 58.0458 9.95484C60.0087 11.9177 61.1304 14.5816 61.1304 17.3858C61.1304 17.9466 61.6211 18.4374 62.182 18.4374C62.7428 18.4374 63.2336 17.9467 63.2336 17.3858C63.2336 14.0208 61.9016 10.796 59.5181 8.4125C57.1346 6.02902 53.9798 4.69702 50.6148 4.69702H50.5447C49.9839 4.69702 49.4932 5.18775 49.4932 5.7486C49.4932 6.37953 49.9838 6.87027 50.5447 6.87027Z" fill="white"/>
<path d="M50.545 11.0759C52.2976 11.0759 53.8399 11.7069 55.0317 12.8986C56.2234 14.0903 56.9245 15.7027 56.8543 17.3852C56.8543 17.9461 57.3451 18.4368 57.9059 18.4368C58.4668 18.4368 58.9575 17.9461 58.9575 17.3852C58.9575 15.1419 58.1162 12.9687 56.5038 11.3562C54.8914 9.74383 52.7884 8.90259 50.545 8.90259H50.4749C49.9141 8.90259 49.4233 9.39332 49.4233 9.95417C49.4934 10.5851 49.9842 11.0759 50.545 11.0759Z" fill="white"/>
</svg>
