<svg width="63" height="56" viewBox="0 0 63 56" fill="none" xmlns="http://www.w3.org/2000/svg">
<path d="M13.66 39.4889H7.09124C3.06043 39.4889 0 35.5206 0 30.1974V27.4873C0 22.1641 3.06043 18.1958 7.09124 18.1958H11.1967L33.5901 41.6182V55.7491L13.66 39.4889Z" fill="white"/>
<path d="M23.2891 10.2595L33.59 1.93579V21.1964L23.2891 10.2595Z" fill="white"/>
<path d="M57.8498 46.845C60.3131 41.3282 61.6567 35.1338 61.6567 28.8427C61.6567 18.9704 58.447 9.48532 52.8486 2.71024L53.7444 1.35522C59.6413 8.51745 63.0003 18.4865 63.0003 28.9395C63.0003 35.7146 61.582 42.2961 58.9695 48.1033L57.8498 46.845Z" fill="white"/>
<path d="M50.9822 39.5858C52.2512 36.1982 52.923 32.5203 52.923 28.8424C52.923 22.2609 50.8329 15.9698 47.25 11.324L48.1457 9.96899C52.1019 14.9051 54.3412 21.777 54.3412 28.8424C54.3412 33.0043 53.5948 37.0693 52.1019 40.7472L50.9822 39.5858Z" fill="white"/>
<path d="M43.8164 32.1335C44.0404 31.0689 44.115 30.0042 44.115 28.8428C44.115 25.552 43.2193 22.4549 41.5024 20.0352L42.3982 18.6802C44.4136 21.3902 45.5333 25.0681 45.5333 28.8428C45.5333 30.2946 45.384 31.8432 45.0107 33.295L43.8164 32.1335Z" fill="white"/>
<path d="M4.03076 1.35502L4.9265 0L56.2073 54.2006L55.3862 55.6524L4.03076 1.35502Z" fill="white"/>
</svg>
